<?xml version="1.0" encoding="UTF-8"?>
<svg id="Calque_1" xmlns="http://www.w3.org/2000/svg" version="1.1" viewBox="0 0 240.94 155.91">
  <!-- Generator: Adobe Illustrator 30.0.0, SVG Export Plug-In . SVG Version: 2.1.1 Build 123)  -->
  <defs>
    <style>
      .st0 {
        fill: #9d9d9c;
        opacity: .16;
      }

      .st1 {
        opacity: .5;
      }
    </style>
  </defs>
  <g class="st1">
    <g>
      <path class="st0" d="M-4.88.57s0,1.97,1.72,3.24c0,0,2.12,1.69,1.64,3.83-.42,1.86-2.56,2.3-3.35,2.3,0,0-2.77.05-3.14-2.88,0,0-.34-1.37,1.45-3.01,0,0,1.27-1.09,1.69-3.48"/>
      <path class="st0" d="M-4.88,11.4s0,1.97,1.72,3.24c0,0,2.12,1.69,1.64,3.83-.42,1.86-2.56,2.3-3.35,2.3,0,0-2.77.05-3.14-2.88,0,0-.34-1.37,1.45-3.01,0,0,1.27-1.09,1.69-3.48"/>
      <path class="st0" d="M-4.88,22.23s0,1.97,1.72,3.24c0,0,2.12,1.69,1.64,3.83-.42,1.86-2.56,2.3-3.35,2.3,0,0-2.77.05-3.14-2.88,0,0-.34-1.37,1.45-3.01,0,0,1.27-1.09,1.69-3.48"/>
      <path class="st0" d="M-4.88,33.06s0,1.97,1.72,3.24c0,0,2.12,1.69,1.64,3.83-.42,1.86-2.56,2.3-3.35,2.3,0,0-2.77.05-3.14-2.88,0,0-.34-1.37,1.45-3.01,0,0,1.27-1.09,1.69-3.48"/>
      <path class="st0" d="M-4.88,43.89s0,1.97,1.72,3.24c0,0,2.12,1.69,1.64,3.83-.42,1.86-2.56,2.3-3.35,2.3,0,0-2.77.05-3.14-2.88,0,0-.34-1.37,1.45-3.01,0,0,1.27-1.09,1.69-3.48"/>
      <path class="st0" d="M-4.88,54.72s0,1.97,1.72,3.24c0,0,2.12,1.69,1.64,3.83-.42,1.86-2.56,2.3-3.35,2.3,0,0-2.77.05-3.14-2.88,0,0-.34-1.37,1.45-3.01,0,0,1.27-1.09,1.69-3.48"/>
      <path class="st0" d="M-4.88,65.55s0,1.97,1.72,3.24c0,0,2.12,1.69,1.64,3.83-.42,1.86-2.56,2.3-3.35,2.3,0,0-2.77.05-3.14-2.88,0,0-.34-1.37,1.45-3.01,0,0,1.27-1.09,1.69-3.48"/>
      <path class="st0" d="M-4.88,76.39s0,1.97,1.72,3.24c0,0,2.12,1.69,1.64,3.83-.42,1.86-2.56,2.3-3.35,2.3,0,0-2.77.05-3.14-2.88,0,0-.34-1.37,1.45-3.01,0,0,1.27-1.09,1.69-3.48"/>
      <path class="st0" d="M-4.88,87.22s0,1.97,1.72,3.24c0,0,2.12,1.69,1.64,3.83-.42,1.86-2.56,2.3-3.35,2.3,0,0-2.77.05-3.14-2.88,0,0-.34-1.37,1.45-3.01,0,0,1.27-1.09,1.69-3.48"/>
      <path class="st0" d="M-4.88,98.05s0,1.97,1.72,3.24c0,0,2.12,1.69,1.64,3.83-.42,1.86-2.56,2.3-3.35,2.3,0,0-2.77.05-3.14-2.88,0,0-.34-1.37,1.45-3.01,0,0,1.27-1.09,1.69-3.48"/>
      <path class="st0" d="M-4.88,108.88s0,1.97,1.72,3.24c0,0,2.12,1.69,1.64,3.83-.42,1.86-2.56,2.3-3.35,2.3,0,0-2.77.05-3.14-2.88,0,0-.34-1.37,1.45-3.01,0,0,1.27-1.09,1.69-3.48"/>
      <path class="st0" d="M-4.88,119.71s0,1.97,1.72,3.24c0,0,2.12,1.69,1.64,3.83-.42,1.86-2.56,2.3-3.35,2.3,0,0-2.77.05-3.14-2.88,0,0-.34-1.37,1.45-3.01,0,0,1.27-1.09,1.69-3.48"/>
      <path class="st0" d="M-4.88,130.54s0,1.97,1.72,3.24c0,0,2.12,1.69,1.64,3.83-.42,1.86-2.56,2.3-3.35,2.3,0,0-2.77.05-3.14-2.88,0,0-.34-1.37,1.45-3.01,0,0,1.27-1.09,1.69-3.48"/>
      <path class="st0" d="M-4.88,141.37s0,1.97,1.72,3.24c0,0,2.12,1.69,1.64,3.83-.42,1.86-2.56,2.3-3.35,2.3,0,0-2.77.05-3.14-2.88,0,0-.34-1.37,1.45-3.01,0,0,1.27-1.09,1.69-3.48"/>
    </g>
    <g>
      <path class="st0" d="M1.71,5.17s0,1.97,1.72,3.24c0,0,2.12,1.69,1.64,3.83-.42,1.86-2.56,2.3-3.35,2.3,0,0-2.77.05-3.14-2.88,0,0-.34-1.37,1.45-3.01,0,0,1.27-1.09,1.69-3.48"/>
      <path class="st0" d="M1.71,16s0,1.97,1.72,3.24c0,0,2.12,1.69,1.64,3.83-.42,1.86-2.56,2.3-3.35,2.3,0,0-2.77.05-3.14-2.88,0,0-.34-1.37,1.45-3.01,0,0,1.27-1.09,1.69-3.48"/>
      <path class="st0" d="M1.71,26.83s0,1.97,1.72,3.24c0,0,2.12,1.69,1.64,3.83-.42,1.86-2.56,2.3-3.35,2.3,0,0-2.77.05-3.14-2.88,0,0-.34-1.37,1.45-3.01,0,0,1.27-1.09,1.69-3.48"/>
      <path class="st0" d="M1.71,37.66s0,1.97,1.72,3.24c0,0,2.12,1.69,1.64,3.83-.42,1.86-2.56,2.3-3.35,2.3,0,0-2.77.05-3.14-2.88,0,0-.34-1.37,1.45-3.01,0,0,1.27-1.09,1.69-3.48"/>
      <path class="st0" d="M1.71,48.49s0,1.97,1.72,3.24c0,0,2.12,1.69,1.64,3.83-.42,1.86-2.56,2.3-3.35,2.3,0,0-2.77.05-3.14-2.88,0,0-.34-1.37,1.45-3.01,0,0,1.27-1.09,1.69-3.48"/>
      <path class="st0" d="M1.71,59.32s0,1.97,1.72,3.24c0,0,2.12,1.69,1.64,3.83-.42,1.86-2.56,2.3-3.35,2.3,0,0-2.77.05-3.14-2.88,0,0-.34-1.37,1.45-3.01,0,0,1.27-1.09,1.69-3.48"/>
      <path class="st0" d="M1.71,70.15s0,1.97,1.72,3.24c0,0,2.12,1.69,1.64,3.83-.42,1.86-2.56,2.3-3.35,2.3,0,0-2.77.05-3.14-2.88,0,0-.34-1.37,1.45-3.01,0,0,1.27-1.09,1.69-3.48"/>
      <path class="st0" d="M1.71,80.99s0,1.97,1.72,3.24c0,0,2.12,1.69,1.64,3.83-.42,1.86-2.56,2.3-3.35,2.3,0,0-2.77.05-3.14-2.88,0,0-.34-1.37,1.45-3.01,0,0,1.27-1.09,1.69-3.48"/>
      <path class="st0" d="M1.71,91.82s0,1.97,1.72,3.24c0,0,2.12,1.69,1.64,3.83-.42,1.86-2.56,2.3-3.35,2.3,0,0-2.77.05-3.14-2.88,0,0-.34-1.37,1.45-3.01,0,0,1.27-1.09,1.69-3.48"/>
      <path class="st0" d="M1.71,102.65s0,1.97,1.72,3.24c0,0,2.12,1.69,1.64,3.83-.42,1.86-2.56,2.3-3.35,2.3,0,0-2.77.05-3.14-2.88,0,0-.34-1.37,1.45-3.01,0,0,1.27-1.09,1.69-3.48"/>
      <path class="st0" d="M1.71,113.48s0,1.97,1.72,3.24c0,0,2.12,1.69,1.64,3.83-.42,1.86-2.56,2.3-3.35,2.3,0,0-2.77.05-3.14-2.88,0,0-.34-1.37,1.45-3.01,0,0,1.27-1.09,1.69-3.48"/>
      <path class="st0" d="M1.71,124.31s0,1.97,1.72,3.24c0,0,2.12,1.69,1.64,3.83-.42,1.86-2.56,2.3-3.35,2.3,0,0-2.77.05-3.14-2.88,0,0-.34-1.37,1.45-3.01,0,0,1.27-1.09,1.69-3.48"/>
      <path class="st0" d="M1.71,135.14s0,1.97,1.72,3.24c0,0,2.12,1.69,1.64,3.83-.42,1.86-2.56,2.3-3.35,2.3,0,0-2.77.05-3.14-2.88,0,0-.34-1.37,1.45-3.01,0,0,1.27-1.09,1.69-3.48"/>
      <path class="st0" d="M1.71,145.97s0,1.97,1.72,3.24c0,0,2.12,1.69,1.64,3.83-.42,1.86-2.56,2.3-3.35,2.3,0,0-2.77.05-3.14-2.88,0,0-.34-1.37,1.45-3.01,0,0,1.27-1.09,1.69-3.48"/>
    </g>
  </g>
  <g class="st1">
    <g>
      <path class="st0" d="M9.46.57s0,1.97,1.72,3.24c0,0,2.12,1.69,1.64,3.83-.42,1.86-2.56,2.3-3.35,2.3,0,0-2.77.05-3.14-2.88,0,0-.34-1.37,1.45-3.01,0,0,1.27-1.09,1.69-3.48"/>
      <path class="st0" d="M9.46,11.4s0,1.97,1.72,3.24c0,0,2.12,1.69,1.64,3.83-.42,1.86-2.56,2.3-3.35,2.3,0,0-2.77.05-3.14-2.88,0,0-.34-1.37,1.45-3.01,0,0,1.27-1.09,1.69-3.48"/>
      <path class="st0" d="M9.46,22.23s0,1.97,1.72,3.24c0,0,2.12,1.69,1.64,3.83-.42,1.86-2.56,2.3-3.35,2.3,0,0-2.77.05-3.14-2.88,0,0-.34-1.37,1.45-3.01,0,0,1.27-1.09,1.69-3.48"/>
      <path class="st0" d="M9.46,33.06s0,1.97,1.72,3.24c0,0,2.12,1.69,1.64,3.83-.42,1.86-2.56,2.3-3.35,2.3,0,0-2.77.05-3.14-2.88,0,0-.34-1.37,1.45-3.01,0,0,1.27-1.09,1.69-3.48"/>
      <path class="st0" d="M9.46,43.89s0,1.97,1.72,3.24c0,0,2.12,1.69,1.64,3.83-.42,1.86-2.56,2.3-3.35,2.3,0,0-2.77.05-3.14-2.88,0,0-.34-1.37,1.45-3.01,0,0,1.27-1.09,1.69-3.48"/>
      <path class="st0" d="M9.46,54.72s0,1.97,1.72,3.24c0,0,2.12,1.69,1.64,3.83-.42,1.86-2.56,2.3-3.35,2.3,0,0-2.77.05-3.14-2.88,0,0-.34-1.37,1.45-3.01,0,0,1.27-1.09,1.69-3.48"/>
      <path class="st0" d="M9.46,65.55s0,1.97,1.72,3.24c0,0,2.12,1.69,1.64,3.83-.42,1.86-2.56,2.3-3.35,2.3,0,0-2.77.05-3.14-2.88,0,0-.34-1.37,1.45-3.01,0,0,1.27-1.09,1.69-3.48"/>
      <path class="st0" d="M9.46,76.39s0,1.97,1.72,3.24c0,0,2.12,1.69,1.64,3.83-.42,1.86-2.56,2.3-3.35,2.3,0,0-2.77.05-3.14-2.88,0,0-.34-1.37,1.45-3.01,0,0,1.27-1.09,1.69-3.48"/>
      <path class="st0" d="M9.46,87.22s0,1.97,1.72,3.24c0,0,2.12,1.69,1.64,3.83-.42,1.86-2.56,2.3-3.35,2.3,0,0-2.77.05-3.14-2.88,0,0-.34-1.37,1.45-3.01,0,0,1.27-1.09,1.69-3.48"/>
      <path class="st0" d="M9.46,98.05s0,1.97,1.72,3.24c0,0,2.12,1.69,1.64,3.83-.42,1.86-2.56,2.3-3.35,2.3,0,0-2.77.05-3.14-2.88,0,0-.34-1.37,1.45-3.01,0,0,1.27-1.09,1.69-3.48"/>
      <path class="st0" d="M9.46,108.88s0,1.97,1.72,3.24c0,0,2.12,1.69,1.64,3.83-.42,1.86-2.56,2.3-3.35,2.3,0,0-2.77.05-3.14-2.88,0,0-.34-1.37,1.45-3.01,0,0,1.27-1.09,1.69-3.48"/>
      <path class="st0" d="M9.46,119.71s0,1.97,1.72,3.24c0,0,2.12,1.69,1.64,3.83-.42,1.86-2.56,2.3-3.35,2.3,0,0-2.77.05-3.14-2.88,0,0-.34-1.37,1.45-3.01,0,0,1.27-1.09,1.69-3.48"/>
      <path class="st0" d="M9.46,130.54s0,1.97,1.72,3.24c0,0,2.12,1.69,1.64,3.83-.42,1.86-2.56,2.3-3.35,2.3,0,0-2.77.05-3.14-2.88,0,0-.34-1.37,1.45-3.01,0,0,1.27-1.09,1.69-3.48"/>
      <path class="st0" d="M9.46,141.37s0,1.97,1.72,3.24c0,0,2.12,1.69,1.64,3.83-.42,1.86-2.56,2.3-3.35,2.3,0,0-2.77.05-3.14-2.88,0,0-.34-1.37,1.45-3.01,0,0,1.27-1.09,1.69-3.48"/>
    </g>
    <g>
      <path class="st0" d="M16.05,5.17s0,1.97,1.72,3.24c0,0,2.12,1.69,1.64,3.83-.42,1.86-2.56,2.3-3.35,2.3,0,0-2.77.05-3.14-2.88,0,0-.34-1.37,1.45-3.01,0,0,1.27-1.09,1.69-3.48"/>
      <path class="st0" d="M16.05,16s0,1.97,1.72,3.24c0,0,2.12,1.69,1.64,3.83-.42,1.86-2.56,2.3-3.35,2.3,0,0-2.77.05-3.14-2.88,0,0-.34-1.37,1.45-3.01,0,0,1.27-1.09,1.69-3.48"/>
      <path class="st0" d="M16.05,26.83s0,1.97,1.72,3.24c0,0,2.12,1.69,1.64,3.83-.42,1.86-2.56,2.3-3.35,2.3,0,0-2.77.05-3.14-2.88,0,0-.34-1.37,1.45-3.01,0,0,1.27-1.09,1.69-3.48"/>
      <path class="st0" d="M16.05,37.66s0,1.97,1.72,3.24c0,0,2.12,1.69,1.64,3.83-.42,1.86-2.56,2.3-3.35,2.3,0,0-2.77.05-3.14-2.88,0,0-.34-1.37,1.45-3.01,0,0,1.27-1.09,1.69-3.48"/>
      <path class="st0" d="M16.05,48.49s0,1.97,1.72,3.24c0,0,2.12,1.69,1.64,3.83-.42,1.86-2.56,2.3-3.35,2.3,0,0-2.77.05-3.14-2.88,0,0-.34-1.37,1.45-3.01,0,0,1.27-1.09,1.69-3.48"/>
      <path class="st0" d="M16.05,59.32s0,1.97,1.72,3.24c0,0,2.12,1.69,1.64,3.83-.42,1.86-2.56,2.3-3.35,2.3,0,0-2.77.05-3.14-2.88,0,0-.34-1.37,1.45-3.01,0,0,1.27-1.09,1.69-3.48"/>
      <path class="st0" d="M16.05,70.15s0,1.97,1.72,3.24c0,0,2.12,1.69,1.64,3.83-.42,1.86-2.56,2.3-3.35,2.3,0,0-2.77.05-3.14-2.88,0,0-.34-1.37,1.45-3.01,0,0,1.27-1.09,1.69-3.48"/>
      <path class="st0" d="M16.05,80.99s0,1.97,1.72,3.24c0,0,2.12,1.69,1.64,3.83-.42,1.86-2.56,2.3-3.35,2.3,0,0-2.77.05-3.14-2.88,0,0-.34-1.37,1.45-3.01,0,0,1.27-1.09,1.69-3.48"/>
      <path class="st0" d="M16.05,91.82s0,1.97,1.72,3.24c0,0,2.12,1.69,1.64,3.83-.42,1.86-2.56,2.3-3.35,2.3,0,0-2.77.05-3.14-2.88,0,0-.34-1.37,1.45-3.01,0,0,1.27-1.09,1.69-3.48"/>
      <path class="st0" d="M16.05,102.65s0,1.97,1.72,3.24c0,0,2.12,1.69,1.64,3.83-.42,1.86-2.56,2.3-3.35,2.3,0,0-2.77.05-3.14-2.88,0,0-.34-1.37,1.45-3.01,0,0,1.27-1.09,1.69-3.48"/>
      <path class="st0" d="M16.05,113.48s0,1.97,1.72,3.24c0,0,2.12,1.69,1.64,3.83-.42,1.86-2.56,2.3-3.35,2.3,0,0-2.77.05-3.14-2.88,0,0-.34-1.37,1.45-3.01,0,0,1.27-1.09,1.69-3.48"/>
      <path class="st0" d="M16.05,124.31s0,1.97,1.72,3.24c0,0,2.12,1.69,1.64,3.83-.42,1.86-2.56,2.3-3.35,2.3,0,0-2.77.05-3.14-2.88,0,0-.34-1.37,1.45-3.01,0,0,1.27-1.09,1.69-3.48"/>
      <path class="st0" d="M16.05,135.14s0,1.97,1.72,3.24c0,0,2.12,1.69,1.64,3.83-.42,1.86-2.56,2.3-3.35,2.3,0,0-2.77.05-3.14-2.88,0,0-.34-1.37,1.45-3.01,0,0,1.27-1.09,1.69-3.48"/>
      <path class="st0" d="M16.05,145.97s0,1.97,1.72,3.24c0,0,2.12,1.69,1.64,3.83-.42,1.86-2.56,2.3-3.35,2.3,0,0-2.77.05-3.14-2.88,0,0-.34-1.37,1.45-3.01,0,0,1.27-1.09,1.69-3.48"/>
    </g>
  </g>
  <g class="st1">
    <g>
      <path class="st0" d="M23.81.57s0,1.97,1.72,3.24c0,0,2.12,1.69,1.64,3.83-.42,1.86-2.56,2.3-3.35,2.3,0,0-2.77.05-3.14-2.88,0,0-.34-1.37,1.45-3.01,0,0,1.27-1.09,1.69-3.48"/>
      <path class="st0" d="M23.81,11.4s0,1.97,1.72,3.24c0,0,2.12,1.69,1.64,3.83-.42,1.86-2.56,2.3-3.35,2.3,0,0-2.77.05-3.14-2.88,0,0-.34-1.37,1.45-3.01,0,0,1.27-1.09,1.69-3.48"/>
      <path class="st0" d="M23.81,22.23s0,1.97,1.72,3.24c0,0,2.12,1.69,1.64,3.83-.42,1.86-2.56,2.3-3.35,2.3,0,0-2.77.05-3.14-2.88,0,0-.34-1.37,1.45-3.01,0,0,1.27-1.09,1.69-3.48"/>
      <path class="st0" d="M23.81,33.06s0,1.97,1.72,3.24c0,0,2.12,1.69,1.64,3.83-.42,1.86-2.56,2.3-3.35,2.3,0,0-2.77.05-3.14-2.88,0,0-.34-1.37,1.45-3.01,0,0,1.27-1.09,1.69-3.48"/>
      <path class="st0" d="M23.81,43.89s0,1.97,1.72,3.24c0,0,2.12,1.69,1.64,3.83-.42,1.86-2.56,2.3-3.35,2.3,0,0-2.77.05-3.14-2.88,0,0-.34-1.37,1.45-3.01,0,0,1.27-1.09,1.69-3.48"/>
      <path class="st0" d="M23.81,54.72s0,1.97,1.72,3.24c0,0,2.12,1.69,1.64,3.83-.42,1.86-2.56,2.3-3.35,2.3,0,0-2.77.05-3.14-2.88,0,0-.34-1.37,1.45-3.01,0,0,1.27-1.09,1.69-3.48"/>
      <path class="st0" d="M23.81,65.55s0,1.97,1.72,3.24c0,0,2.12,1.69,1.64,3.83-.42,1.86-2.56,2.3-3.35,2.3,0,0-2.77.05-3.14-2.88,0,0-.34-1.37,1.45-3.01,0,0,1.27-1.09,1.69-3.48"/>
      <path class="st0" d="M23.81,76.39s0,1.97,1.72,3.24c0,0,2.12,1.69,1.64,3.83-.42,1.86-2.56,2.3-3.35,2.3,0,0-2.77.05-3.14-2.88,0,0-.34-1.37,1.45-3.01,0,0,1.27-1.09,1.69-3.48"/>
      <path class="st0" d="M23.81,87.22s0,1.97,1.72,3.24c0,0,2.12,1.69,1.64,3.83-.42,1.86-2.56,2.3-3.35,2.3,0,0-2.77.05-3.14-2.88,0,0-.34-1.37,1.45-3.01,0,0,1.27-1.09,1.69-3.48"/>
      <path class="st0" d="M23.81,98.05s0,1.97,1.72,3.24c0,0,2.12,1.69,1.64,3.83-.42,1.86-2.56,2.3-3.35,2.3,0,0-2.77.05-3.14-2.88,0,0-.34-1.37,1.45-3.01,0,0,1.27-1.09,1.69-3.48"/>
      <path class="st0" d="M23.81,108.88s0,1.97,1.72,3.24c0,0,2.12,1.69,1.64,3.83-.42,1.86-2.56,2.3-3.35,2.3,0,0-2.77.05-3.14-2.88,0,0-.34-1.37,1.45-3.01,0,0,1.27-1.09,1.69-3.48"/>
      <path class="st0" d="M23.81,119.71s0,1.97,1.72,3.24c0,0,2.12,1.69,1.64,3.83-.42,1.86-2.56,2.3-3.35,2.3,0,0-2.77.05-3.14-2.88,0,0-.34-1.37,1.45-3.01,0,0,1.27-1.09,1.69-3.48"/>
      <path class="st0" d="M23.81,130.54s0,1.97,1.72,3.24c0,0,2.12,1.69,1.64,3.83-.42,1.86-2.56,2.3-3.35,2.3,0,0-2.77.05-3.14-2.88,0,0-.34-1.37,1.45-3.01,0,0,1.27-1.09,1.69-3.48"/>
      <path class="st0" d="M23.81,141.37s0,1.97,1.72,3.24c0,0,2.12,1.69,1.64,3.83-.42,1.86-2.56,2.3-3.35,2.3,0,0-2.77.05-3.14-2.88,0,0-.34-1.37,1.45-3.01,0,0,1.27-1.09,1.69-3.48"/>
    </g>
    <g>
      <path class="st0" d="M30.4,5.17s0,1.97,1.72,3.24c0,0,2.12,1.69,1.64,3.83-.42,1.86-2.56,2.3-3.35,2.3,0,0-2.77.05-3.14-2.88,0,0-.34-1.37,1.45-3.01,0,0,1.27-1.09,1.69-3.48"/>
      <path class="st0" d="M30.4,16s0,1.97,1.72,3.24c0,0,2.12,1.69,1.64,3.83-.42,1.86-2.56,2.3-3.35,2.3,0,0-2.77.05-3.14-2.88,0,0-.34-1.37,1.45-3.01,0,0,1.27-1.09,1.69-3.48"/>
      <path class="st0" d="M30.4,26.83s0,1.97,1.72,3.24c0,0,2.12,1.69,1.64,3.83-.42,1.86-2.56,2.3-3.35,2.3,0,0-2.77.05-3.14-2.88,0,0-.34-1.37,1.45-3.01,0,0,1.27-1.09,1.69-3.48"/>
      <path class="st0" d="M30.4,37.66s0,1.97,1.72,3.24c0,0,2.12,1.69,1.64,3.83-.42,1.86-2.56,2.3-3.35,2.3,0,0-2.77.05-3.14-2.88,0,0-.34-1.37,1.45-3.01,0,0,1.27-1.09,1.69-3.48"/>
      <path class="st0" d="M30.4,48.49s0,1.97,1.72,3.24c0,0,2.12,1.69,1.64,3.83-.42,1.86-2.56,2.3-3.35,2.3,0,0-2.77.05-3.14-2.88,0,0-.34-1.37,1.45-3.01,0,0,1.27-1.09,1.69-3.48"/>
      <path class="st0" d="M30.4,59.32s0,1.97,1.72,3.24c0,0,2.12,1.69,1.64,3.83-.42,1.86-2.56,2.3-3.35,2.3,0,0-2.77.05-3.14-2.88,0,0-.34-1.37,1.45-3.01,0,0,1.27-1.09,1.69-3.48"/>
      <path class="st0" d="M30.4,70.15s0,1.97,1.72,3.24c0,0,2.12,1.69,1.64,3.83-.42,1.86-2.56,2.3-3.35,2.3,0,0-2.77.05-3.14-2.88,0,0-.34-1.37,1.45-3.01,0,0,1.27-1.09,1.69-3.48"/>
      <path class="st0" d="M30.4,80.99s0,1.97,1.72,3.24c0,0,2.12,1.69,1.64,3.83-.42,1.86-2.56,2.3-3.35,2.3,0,0-2.77.05-3.14-2.88,0,0-.34-1.37,1.45-3.01,0,0,1.27-1.09,1.69-3.48"/>
      <path class="st0" d="M30.4,91.82s0,1.97,1.72,3.24c0,0,2.12,1.69,1.64,3.83-.42,1.86-2.56,2.3-3.35,2.3,0,0-2.77.05-3.14-2.88,0,0-.34-1.37,1.45-3.01,0,0,1.27-1.09,1.69-3.48"/>
      <path class="st0" d="M30.4,102.65s0,1.97,1.72,3.24c0,0,2.12,1.69,1.64,3.83-.42,1.86-2.56,2.3-3.35,2.3,0,0-2.77.05-3.14-2.88,0,0-.34-1.37,1.45-3.01,0,0,1.27-1.09,1.69-3.48"/>
      <path class="st0" d="M30.4,113.48s0,1.97,1.72,3.24c0,0,2.12,1.69,1.64,3.83-.42,1.86-2.56,2.3-3.35,2.3,0,0-2.77.05-3.14-2.88,0,0-.34-1.37,1.45-3.01,0,0,1.27-1.09,1.69-3.48"/>
      <path class="st0" d="M30.4,124.31s0,1.97,1.72,3.24c0,0,2.12,1.69,1.64,3.83-.42,1.86-2.56,2.3-3.35,2.3,0,0-2.77.05-3.14-2.88,0,0-.34-1.37,1.45-3.01,0,0,1.27-1.09,1.69-3.48"/>
      <path class="st0" d="M30.4,135.14s0,1.97,1.72,3.24c0,0,2.12,1.69,1.64,3.83-.42,1.86-2.56,2.3-3.35,2.3,0,0-2.77.05-3.14-2.88,0,0-.34-1.37,1.45-3.01,0,0,1.27-1.09,1.69-3.48"/>
      <path class="st0" d="M30.4,145.97s0,1.97,1.72,3.24c0,0,2.12,1.69,1.64,3.83-.42,1.86-2.56,2.3-3.35,2.3,0,0-2.77.05-3.14-2.88,0,0-.34-1.37,1.45-3.01,0,0,1.27-1.09,1.69-3.48"/>
    </g>
  </g>
  <g class="st1">
    <g>
      <path class="st0" d="M38.15.57s0,1.97,1.72,3.24c0,0,2.12,1.69,1.64,3.83-.42,1.86-2.56,2.3-3.35,2.3,0,0-2.77.05-3.14-2.88,0,0-.34-1.37,1.45-3.01,0,0,1.27-1.09,1.69-3.48"/>
      <path class="st0" d="M38.15,11.4s0,1.97,1.72,3.24c0,0,2.12,1.69,1.64,3.83-.42,1.86-2.56,2.3-3.35,2.3,0,0-2.77.05-3.14-2.88,0,0-.34-1.37,1.45-3.01,0,0,1.27-1.09,1.69-3.48"/>
      <path class="st0" d="M38.15,22.23s0,1.97,1.72,3.24c0,0,2.12,1.69,1.64,3.83-.42,1.86-2.56,2.3-3.35,2.3,0,0-2.77.05-3.14-2.88,0,0-.34-1.37,1.45-3.01,0,0,1.27-1.09,1.69-3.48"/>
      <path class="st0" d="M38.15,33.06s0,1.97,1.72,3.24c0,0,2.12,1.69,1.64,3.83-.42,1.86-2.56,2.3-3.35,2.3,0,0-2.77.05-3.14-2.88,0,0-.34-1.37,1.45-3.01,0,0,1.27-1.09,1.69-3.48"/>
      <path class="st0" d="M38.15,43.89s0,1.97,1.72,3.24c0,0,2.12,1.69,1.64,3.83-.42,1.86-2.56,2.3-3.35,2.3,0,0-2.77.05-3.14-2.88,0,0-.34-1.37,1.45-3.01,0,0,1.27-1.09,1.69-3.48"/>
      <path class="st0" d="M38.15,54.72s0,1.97,1.72,3.24c0,0,2.12,1.69,1.64,3.83-.42,1.86-2.56,2.3-3.35,2.3,0,0-2.77.05-3.14-2.88,0,0-.34-1.37,1.45-3.01,0,0,1.27-1.09,1.69-3.48"/>
      <path class="st0" d="M38.15,65.55s0,1.97,1.72,3.24c0,0,2.12,1.69,1.64,3.83-.42,1.86-2.56,2.3-3.35,2.3,0,0-2.77.05-3.14-2.88,0,0-.34-1.37,1.45-3.01,0,0,1.27-1.09,1.69-3.48"/>
      <path class="st0" d="M38.15,76.39s0,1.97,1.72,3.24c0,0,2.12,1.69,1.64,3.83-.42,1.86-2.56,2.3-3.35,2.3,0,0-2.77.05-3.14-2.88,0,0-.34-1.37,1.45-3.01,0,0,1.27-1.09,1.69-3.48"/>
      <path class="st0" d="M38.15,87.22s0,1.97,1.72,3.24c0,0,2.12,1.69,1.64,3.83-.42,1.86-2.56,2.3-3.35,2.3,0,0-2.77.05-3.14-2.88,0,0-.34-1.37,1.45-3.01,0,0,1.27-1.09,1.69-3.48"/>
      <path class="st0" d="M38.15,98.05s0,1.97,1.72,3.24c0,0,2.12,1.69,1.64,3.83-.42,1.86-2.56,2.3-3.35,2.3,0,0-2.77.05-3.14-2.88,0,0-.34-1.37,1.45-3.01,0,0,1.27-1.09,1.69-3.48"/>
      <path class="st0" d="M38.15,108.88s0,1.97,1.72,3.24c0,0,2.12,1.69,1.64,3.83-.42,1.86-2.56,2.3-3.35,2.3,0,0-2.77.05-3.14-2.88,0,0-.34-1.37,1.45-3.01,0,0,1.27-1.09,1.69-3.48"/>
      <path class="st0" d="M38.15,119.71s0,1.97,1.72,3.24c0,0,2.12,1.69,1.64,3.83-.42,1.86-2.56,2.3-3.35,2.3,0,0-2.77.05-3.14-2.88,0,0-.34-1.37,1.45-3.01,0,0,1.27-1.09,1.69-3.48"/>
      <path class="st0" d="M38.15,130.54s0,1.97,1.72,3.24c0,0,2.12,1.69,1.64,3.83-.42,1.86-2.56,2.3-3.35,2.3,0,0-2.77.05-3.14-2.88,0,0-.34-1.37,1.45-3.01,0,0,1.27-1.09,1.69-3.48"/>
      <path class="st0" d="M38.15,141.37s0,1.97,1.72,3.24c0,0,2.12,1.69,1.64,3.83-.42,1.86-2.56,2.3-3.35,2.3,0,0-2.77.05-3.14-2.88,0,0-.34-1.37,1.45-3.01,0,0,1.27-1.09,1.69-3.48"/>
    </g>
    <g>
      <path class="st0" d="M44.74,5.17s0,1.97,1.72,3.24c0,0,2.12,1.69,1.64,3.83-.42,1.86-2.56,2.3-3.35,2.3,0,0-2.77.05-3.14-2.88,0,0-.34-1.37,1.45-3.01,0,0,1.27-1.09,1.69-3.48"/>
      <path class="st0" d="M44.74,16s0,1.97,1.72,3.24c0,0,2.12,1.69,1.64,3.83-.42,1.86-2.56,2.3-3.35,2.3,0,0-2.77.05-3.14-2.88,0,0-.34-1.37,1.45-3.01,0,0,1.27-1.09,1.69-3.48"/>
      <path class="st0" d="M44.74,26.83s0,1.97,1.72,3.24c0,0,2.12,1.69,1.64,3.83-.42,1.86-2.56,2.3-3.35,2.3,0,0-2.77.05-3.14-2.88,0,0-.34-1.37,1.45-3.01,0,0,1.27-1.09,1.69-3.48"/>
      <path class="st0" d="M44.74,37.66s0,1.97,1.72,3.24c0,0,2.12,1.69,1.64,3.83-.42,1.86-2.56,2.3-3.35,2.3,0,0-2.77.05-3.14-2.88,0,0-.34-1.37,1.45-3.01,0,0,1.27-1.09,1.69-3.48"/>
      <path class="st0" d="M44.74,48.49s0,1.97,1.72,3.24c0,0,2.12,1.69,1.64,3.83-.42,1.86-2.56,2.3-3.35,2.3,0,0-2.77.05-3.14-2.88,0,0-.34-1.37,1.45-3.01,0,0,1.27-1.09,1.69-3.48"/>
      <path class="st0" d="M44.74,59.32s0,1.97,1.72,3.24c0,0,2.12,1.69,1.64,3.83-.42,1.86-2.56,2.3-3.35,2.3,0,0-2.77.05-3.14-2.88,0,0-.34-1.37,1.45-3.01,0,0,1.27-1.09,1.69-3.48"/>
      <path class="st0" d="M44.74,70.15s0,1.97,1.72,3.24c0,0,2.12,1.69,1.64,3.83-.42,1.86-2.56,2.3-3.35,2.3,0,0-2.77.05-3.14-2.88,0,0-.34-1.37,1.45-3.01,0,0,1.27-1.09,1.69-3.48"/>
      <path class="st0" d="M44.74,80.99s0,1.97,1.72,3.24c0,0,2.12,1.69,1.64,3.83-.42,1.86-2.56,2.3-3.35,2.3,0,0-2.77.05-3.14-2.88,0,0-.34-1.37,1.45-3.01,0,0,1.27-1.09,1.69-3.48"/>
      <path class="st0" d="M44.74,91.82s0,1.97,1.72,3.24c0,0,2.12,1.69,1.64,3.83-.42,1.86-2.56,2.3-3.35,2.3,0,0-2.77.05-3.14-2.88,0,0-.34-1.37,1.45-3.01,0,0,1.27-1.09,1.69-3.48"/>
      <path class="st0" d="M44.74,102.65s0,1.97,1.72,3.24c0,0,2.12,1.69,1.64,3.83-.42,1.86-2.56,2.3-3.35,2.3,0,0-2.77.05-3.14-2.88,0,0-.34-1.37,1.45-3.01,0,0,1.27-1.09,1.69-3.48"/>
      <path class="st0" d="M44.74,113.48s0,1.97,1.72,3.24c0,0,2.12,1.69,1.64,3.83-.42,1.86-2.56,2.3-3.35,2.3,0,0-2.77.05-3.14-2.88,0,0-.34-1.37,1.45-3.01,0,0,1.27-1.09,1.69-3.48"/>
      <path class="st0" d="M44.74,124.31s0,1.97,1.72,3.24c0,0,2.12,1.69,1.64,3.83-.42,1.86-2.56,2.3-3.35,2.3,0,0-2.77.05-3.14-2.88,0,0-.34-1.37,1.45-3.01,0,0,1.27-1.09,1.69-3.48"/>
      <path class="st0" d="M44.74,135.14s0,1.97,1.72,3.24c0,0,2.12,1.69,1.64,3.83-.42,1.86-2.56,2.3-3.35,2.3,0,0-2.77.05-3.14-2.88,0,0-.34-1.37,1.45-3.01,0,0,1.27-1.09,1.69-3.48"/>
      <path class="st0" d="M44.74,145.97s0,1.97,1.72,3.24c0,0,2.12,1.69,1.64,3.83-.42,1.86-2.56,2.3-3.35,2.3,0,0-2.77.05-3.14-2.88,0,0-.34-1.37,1.45-3.01,0,0,1.27-1.09,1.69-3.48"/>
    </g>
  </g>
  <g class="st1">
    <g>
      <path class="st0" d="M52.5.57s0,1.97,1.72,3.24c0,0,2.12,1.69,1.64,3.83-.42,1.86-2.56,2.3-3.35,2.3,0,0-2.77.05-3.14-2.88,0,0-.34-1.37,1.45-3.01,0,0,1.27-1.09,1.69-3.48"/>
      <path class="st0" d="M52.5,11.4s0,1.97,1.72,3.24c0,0,2.12,1.69,1.64,3.83-.42,1.86-2.56,2.3-3.35,2.3,0,0-2.77.05-3.14-2.88,0,0-.34-1.37,1.45-3.01,0,0,1.27-1.09,1.69-3.48"/>
      <path class="st0" d="M52.5,22.23s0,1.97,1.72,3.24c0,0,2.12,1.69,1.64,3.83-.42,1.86-2.56,2.3-3.35,2.3,0,0-2.77.05-3.14-2.88,0,0-.34-1.37,1.45-3.01,0,0,1.27-1.09,1.69-3.48"/>
      <path class="st0" d="M52.5,33.06s0,1.97,1.72,3.24c0,0,2.12,1.69,1.64,3.83-.42,1.86-2.56,2.3-3.35,2.3,0,0-2.77.05-3.14-2.88,0,0-.34-1.37,1.45-3.01,0,0,1.27-1.09,1.69-3.48"/>
      <path class="st0" d="M52.5,43.89s0,1.97,1.72,3.24c0,0,2.12,1.69,1.64,3.83-.42,1.86-2.56,2.3-3.35,2.3,0,0-2.77.05-3.14-2.88,0,0-.34-1.37,1.45-3.01,0,0,1.27-1.09,1.69-3.48"/>
      <path class="st0" d="M52.5,54.72s0,1.97,1.72,3.24c0,0,2.12,1.69,1.64,3.83-.42,1.86-2.56,2.3-3.35,2.3,0,0-2.77.05-3.14-2.88,0,0-.34-1.37,1.45-3.01,0,0,1.27-1.09,1.69-3.48"/>
      <path class="st0" d="M52.5,65.55s0,1.97,1.72,3.24c0,0,2.12,1.69,1.64,3.83-.42,1.86-2.56,2.3-3.35,2.3,0,0-2.77.05-3.14-2.88,0,0-.34-1.37,1.45-3.01,0,0,1.27-1.09,1.69-3.48"/>
      <path class="st0" d="M52.5,76.39s0,1.97,1.72,3.24c0,0,2.12,1.69,1.64,3.83-.42,1.86-2.56,2.3-3.35,2.3,0,0-2.77.05-3.14-2.88,0,0-.34-1.37,1.45-3.01,0,0,1.27-1.09,1.69-3.48"/>
      <path class="st0" d="M52.5,87.22s0,1.97,1.72,3.24c0,0,2.12,1.69,1.64,3.83-.42,1.86-2.56,2.3-3.35,2.3,0,0-2.77.05-3.14-2.88,0,0-.34-1.37,1.45-3.01,0,0,1.27-1.09,1.69-3.48"/>
      <path class="st0" d="M52.5,98.05s0,1.97,1.72,3.24c0,0,2.12,1.69,1.64,3.83-.42,1.86-2.56,2.3-3.35,2.3,0,0-2.77.05-3.14-2.88,0,0-.34-1.37,1.45-3.01,0,0,1.27-1.09,1.69-3.48"/>
      <path class="st0" d="M52.5,108.88s0,1.97,1.72,3.24c0,0,2.12,1.69,1.64,3.83-.42,1.86-2.56,2.3-3.35,2.3,0,0-2.77.05-3.14-2.88,0,0-.34-1.37,1.45-3.01,0,0,1.27-1.09,1.69-3.48"/>
      <path class="st0" d="M52.5,119.71s0,1.97,1.72,3.24c0,0,2.12,1.69,1.64,3.83-.42,1.86-2.56,2.3-3.35,2.3,0,0-2.77.05-3.14-2.88,0,0-.34-1.37,1.45-3.01,0,0,1.27-1.09,1.69-3.48"/>
      <path class="st0" d="M52.5,130.54s0,1.97,1.72,3.24c0,0,2.12,1.69,1.64,3.83-.42,1.86-2.56,2.3-3.35,2.3,0,0-2.77.05-3.14-2.88,0,0-.34-1.37,1.45-3.01,0,0,1.27-1.09,1.69-3.48"/>
      <path class="st0" d="M52.5,141.37s0,1.97,1.72,3.24c0,0,2.12,1.69,1.64,3.83-.42,1.86-2.56,2.3-3.35,2.3,0,0-2.77.05-3.14-2.88,0,0-.34-1.37,1.45-3.01,0,0,1.27-1.09,1.69-3.48"/>
    </g>
    <g>
      <path class="st0" d="M59.09,5.17s0,1.97,1.72,3.24c0,0,2.12,1.69,1.64,3.83-.42,1.86-2.56,2.3-3.35,2.3,0,0-2.77.05-3.14-2.88,0,0-.34-1.37,1.45-3.01,0,0,1.27-1.09,1.69-3.48"/>
      <path class="st0" d="M59.09,16s0,1.97,1.72,3.24c0,0,2.12,1.69,1.64,3.83-.42,1.86-2.56,2.3-3.35,2.3,0,0-2.77.05-3.14-2.88,0,0-.34-1.37,1.45-3.01,0,0,1.27-1.09,1.69-3.48"/>
      <path class="st0" d="M59.09,26.83s0,1.97,1.72,3.24c0,0,2.12,1.69,1.64,3.83-.42,1.86-2.56,2.3-3.35,2.3,0,0-2.77.05-3.14-2.88,0,0-.34-1.37,1.45-3.01,0,0,1.27-1.09,1.69-3.48"/>
      <path class="st0" d="M59.09,37.66s0,1.97,1.72,3.24c0,0,2.12,1.69,1.64,3.83-.42,1.86-2.56,2.3-3.35,2.3,0,0-2.77.05-3.14-2.88,0,0-.34-1.37,1.45-3.01,0,0,1.27-1.09,1.69-3.48"/>
      <path class="st0" d="M59.09,48.49s0,1.97,1.72,3.24c0,0,2.12,1.69,1.64,3.83-.42,1.86-2.56,2.3-3.35,2.3,0,0-2.77.05-3.14-2.88,0,0-.34-1.37,1.45-3.01,0,0,1.27-1.09,1.69-3.48"/>
      <path class="st0" d="M59.09,59.32s0,1.97,1.72,3.24c0,0,2.12,1.69,1.64,3.83-.42,1.86-2.56,2.3-3.35,2.3,0,0-2.77.05-3.14-2.88,0,0-.34-1.37,1.45-3.01,0,0,1.27-1.09,1.69-3.48"/>
      <path class="st0" d="M59.09,70.15s0,1.97,1.72,3.24c0,0,2.12,1.69,1.64,3.83-.42,1.86-2.56,2.3-3.35,2.3,0,0-2.77.05-3.14-2.88,0,0-.34-1.37,1.45-3.01,0,0,1.27-1.09,1.69-3.48"/>
      <path class="st0" d="M59.09,80.99s0,1.97,1.72,3.24c0,0,2.12,1.69,1.64,3.83-.42,1.86-2.56,2.3-3.35,2.3,0,0-2.77.05-3.14-2.88,0,0-.34-1.37,1.45-3.01,0,0,1.27-1.09,1.69-3.48"/>
      <path class="st0" d="M59.09,91.82s0,1.97,1.72,3.24c0,0,2.12,1.69,1.64,3.83-.42,1.86-2.56,2.3-3.35,2.3,0,0-2.77.05-3.14-2.88,0,0-.34-1.37,1.45-3.01,0,0,1.27-1.09,1.69-3.48"/>
      <path class="st0" d="M59.09,102.65s0,1.97,1.72,3.24c0,0,2.12,1.69,1.64,3.83-.42,1.86-2.56,2.3-3.35,2.3,0,0-2.77.05-3.14-2.88,0,0-.34-1.37,1.45-3.01,0,0,1.27-1.09,1.69-3.48"/>
      <path class="st0" d="M59.09,113.48s0,1.97,1.72,3.24c0,0,2.12,1.69,1.64,3.83-.42,1.86-2.56,2.3-3.35,2.3,0,0-2.77.05-3.14-2.88,0,0-.34-1.37,1.45-3.01,0,0,1.27-1.09,1.69-3.48"/>
      <path class="st0" d="M59.09,124.31s0,1.97,1.72,3.24c0,0,2.12,1.69,1.64,3.83-.42,1.86-2.56,2.3-3.35,2.3,0,0-2.77.05-3.14-2.88,0,0-.34-1.37,1.45-3.01,0,0,1.27-1.09,1.69-3.48"/>
      <path class="st0" d="M59.09,135.14s0,1.97,1.72,3.24c0,0,2.12,1.69,1.64,3.83-.42,1.86-2.56,2.3-3.35,2.3,0,0-2.77.05-3.14-2.88,0,0-.34-1.37,1.45-3.01,0,0,1.27-1.09,1.69-3.48"/>
      <path class="st0" d="M59.09,145.97s0,1.97,1.72,3.24c0,0,2.12,1.69,1.64,3.83-.42,1.86-2.56,2.3-3.35,2.3,0,0-2.77.05-3.14-2.88,0,0-.34-1.37,1.45-3.01,0,0,1.27-1.09,1.69-3.48"/>
    </g>
  </g>
  <g class="st1">
    <g>
      <path class="st0" d="M66.84.57s0,1.97,1.72,3.24c0,0,2.12,1.69,1.64,3.83-.42,1.86-2.56,2.3-3.35,2.3,0,0-2.77.05-3.14-2.88,0,0-.34-1.37,1.45-3.01,0,0,1.27-1.09,1.69-3.48"/>
      <path class="st0" d="M66.84,11.4s0,1.97,1.72,3.24c0,0,2.12,1.69,1.64,3.83-.42,1.86-2.56,2.3-3.35,2.3,0,0-2.77.05-3.14-2.88,0,0-.34-1.37,1.45-3.01,0,0,1.27-1.09,1.69-3.48"/>
      <path class="st0" d="M66.84,22.23s0,1.97,1.72,3.24c0,0,2.12,1.69,1.64,3.83-.42,1.86-2.56,2.3-3.35,2.3,0,0-2.77.05-3.14-2.88,0,0-.34-1.37,1.45-3.01,0,0,1.27-1.09,1.69-3.48"/>
      <path class="st0" d="M66.84,33.06s0,1.97,1.72,3.24c0,0,2.12,1.69,1.64,3.83-.42,1.86-2.56,2.3-3.35,2.3,0,0-2.77.05-3.14-2.88,0,0-.34-1.37,1.45-3.01,0,0,1.27-1.09,1.69-3.48"/>
      <path class="st0" d="M66.84,43.89s0,1.97,1.72,3.24c0,0,2.12,1.69,1.64,3.83-.42,1.86-2.56,2.3-3.35,2.3,0,0-2.77.05-3.14-2.88,0,0-.34-1.37,1.45-3.01,0,0,1.27-1.09,1.69-3.48"/>
      <path class="st0" d="M66.84,54.72s0,1.97,1.72,3.24c0,0,2.12,1.69,1.64,3.83-.42,1.86-2.56,2.3-3.35,2.3,0,0-2.77.05-3.14-2.88,0,0-.34-1.37,1.45-3.01,0,0,1.27-1.09,1.69-3.48"/>
      <path class="st0" d="M66.84,65.55s0,1.97,1.72,3.24c0,0,2.12,1.69,1.64,3.83-.42,1.86-2.56,2.3-3.35,2.3,0,0-2.77.05-3.14-2.88,0,0-.34-1.37,1.45-3.01,0,0,1.27-1.09,1.69-3.48"/>
      <path class="st0" d="M66.84,76.39s0,1.97,1.72,3.24c0,0,2.12,1.69,1.64,3.83-.42,1.86-2.56,2.3-3.35,2.3,0,0-2.77.05-3.14-2.88,0,0-.34-1.37,1.45-3.01,0,0,1.27-1.09,1.69-3.48"/>
      <path class="st0" d="M66.84,87.22s0,1.97,1.72,3.24c0,0,2.12,1.69,1.64,3.83-.42,1.86-2.56,2.3-3.35,2.3,0,0-2.77.05-3.14-2.88,0,0-.34-1.37,1.45-3.01,0,0,1.27-1.09,1.69-3.48"/>
      <path class="st0" d="M66.84,98.05s0,1.97,1.72,3.24c0,0,2.12,1.69,1.64,3.83-.42,1.86-2.56,2.3-3.35,2.3,0,0-2.77.05-3.14-2.88,0,0-.34-1.37,1.45-3.01,0,0,1.27-1.09,1.69-3.48"/>
      <path class="st0" d="M66.84,108.88s0,1.97,1.72,3.24c0,0,2.12,1.69,1.64,3.83-.42,1.86-2.56,2.3-3.35,2.3,0,0-2.77.05-3.14-2.88,0,0-.34-1.37,1.45-3.01,0,0,1.27-1.09,1.69-3.48"/>
      <path class="st0" d="M66.84,119.71s0,1.97,1.72,3.24c0,0,2.12,1.69,1.64,3.83-.42,1.86-2.56,2.3-3.35,2.3,0,0-2.77.05-3.14-2.88,0,0-.34-1.37,1.45-3.01,0,0,1.27-1.09,1.69-3.48"/>
      <path class="st0" d="M66.84,130.54s0,1.97,1.72,3.24c0,0,2.12,1.69,1.64,3.83-.42,1.86-2.56,2.3-3.35,2.3,0,0-2.77.05-3.14-2.88,0,0-.34-1.37,1.45-3.01,0,0,1.27-1.09,1.69-3.48"/>
      <path class="st0" d="M66.84,141.37s0,1.97,1.72,3.24c0,0,2.12,1.69,1.64,3.83-.42,1.86-2.56,2.3-3.35,2.3,0,0-2.77.05-3.14-2.88,0,0-.34-1.37,1.45-3.01,0,0,1.27-1.09,1.69-3.48"/>
    </g>
    <g>
      <path class="st0" d="M73.43,5.17s0,1.97,1.72,3.24c0,0,2.12,1.69,1.64,3.83-.42,1.86-2.56,2.3-3.35,2.3,0,0-2.77.05-3.14-2.88,0,0-.34-1.37,1.45-3.01,0,0,1.27-1.09,1.69-3.48"/>
      <path class="st0" d="M73.43,16s0,1.97,1.72,3.24c0,0,2.12,1.69,1.64,3.83-.42,1.86-2.56,2.3-3.35,2.3,0,0-2.77.05-3.14-2.88,0,0-.34-1.37,1.45-3.01,0,0,1.27-1.09,1.69-3.48"/>
      <path class="st0" d="M73.43,26.83s0,1.97,1.72,3.24c0,0,2.12,1.69,1.64,3.83-.42,1.86-2.56,2.3-3.35,2.3,0,0-2.77.05-3.14-2.88,0,0-.34-1.37,1.45-3.01,0,0,1.27-1.09,1.69-3.48"/>
      <path class="st0" d="M73.43,37.66s0,1.97,1.72,3.24c0,0,2.12,1.69,1.64,3.83-.42,1.86-2.56,2.3-3.35,2.3,0,0-2.77.05-3.14-2.88,0,0-.34-1.37,1.45-3.01,0,0,1.27-1.09,1.69-3.48"/>
      <path class="st0" d="M73.43,48.49s0,1.97,1.72,3.24c0,0,2.12,1.69,1.64,3.83-.42,1.86-2.56,2.3-3.35,2.3,0,0-2.77.05-3.14-2.88,0,0-.34-1.37,1.45-3.01,0,0,1.27-1.09,1.69-3.48"/>
      <path class="st0" d="M73.43,59.32s0,1.97,1.72,3.24c0,0,2.12,1.69,1.64,3.83-.42,1.86-2.56,2.3-3.35,2.3,0,0-2.77.05-3.14-2.88,0,0-.34-1.37,1.45-3.01,0,0,1.27-1.09,1.69-3.48"/>
      <path class="st0" d="M73.43,70.15s0,1.97,1.72,3.24c0,0,2.12,1.69,1.64,3.83-.42,1.86-2.56,2.3-3.35,2.3,0,0-2.77.05-3.14-2.88,0,0-.34-1.37,1.45-3.01,0,0,1.27-1.09,1.69-3.48"/>
      <path class="st0" d="M73.43,80.99s0,1.97,1.72,3.24c0,0,2.12,1.69,1.64,3.83-.42,1.86-2.56,2.3-3.35,2.3,0,0-2.77.05-3.14-2.88,0,0-.34-1.37,1.45-3.01,0,0,1.27-1.09,1.69-3.48"/>
      <path class="st0" d="M73.43,91.82s0,1.97,1.72,3.24c0,0,2.12,1.69,1.64,3.83-.42,1.86-2.56,2.3-3.35,2.3,0,0-2.77.05-3.14-2.88,0,0-.34-1.37,1.45-3.01,0,0,1.27-1.09,1.69-3.48"/>
      <path class="st0" d="M73.43,102.65s0,1.97,1.72,3.24c0,0,2.12,1.69,1.64,3.83-.42,1.86-2.56,2.3-3.35,2.3,0,0-2.77.05-3.14-2.88,0,0-.34-1.37,1.45-3.01,0,0,1.27-1.09,1.69-3.48"/>
      <path class="st0" d="M73.43,113.48s0,1.97,1.72,3.24c0,0,2.12,1.69,1.64,3.83-.42,1.86-2.56,2.3-3.35,2.3,0,0-2.77.05-3.14-2.88,0,0-.34-1.37,1.45-3.01,0,0,1.27-1.09,1.69-3.48"/>
      <path class="st0" d="M73.43,124.31s0,1.97,1.72,3.24c0,0,2.12,1.69,1.64,3.83-.42,1.86-2.56,2.3-3.35,2.3,0,0-2.77.05-3.14-2.88,0,0-.34-1.37,1.45-3.01,0,0,1.27-1.09,1.69-3.48"/>
      <path class="st0" d="M73.43,135.14s0,1.97,1.72,3.24c0,0,2.12,1.69,1.64,3.83-.42,1.86-2.56,2.3-3.35,2.3,0,0-2.77.05-3.14-2.88,0,0-.34-1.37,1.45-3.01,0,0,1.27-1.09,1.69-3.48"/>
      <path class="st0" d="M73.43,145.97s0,1.97,1.72,3.24c0,0,2.12,1.69,1.64,3.83-.42,1.86-2.56,2.3-3.35,2.3,0,0-2.77.05-3.14-2.88,0,0-.34-1.37,1.45-3.01,0,0,1.27-1.09,1.69-3.48"/>
    </g>
  </g>
  <g class="st1">
    <g>
      <path class="st0" d="M81.19.57s0,1.97,1.72,3.24c0,0,2.12,1.69,1.64,3.83-.42,1.86-2.56,2.3-3.35,2.3,0,0-2.77.05-3.14-2.88,0,0-.34-1.37,1.45-3.01,0,0,1.27-1.09,1.69-3.48"/>
      <path class="st0" d="M81.19,11.4s0,1.97,1.72,3.24c0,0,2.12,1.69,1.64,3.83-.42,1.86-2.56,2.3-3.35,2.3,0,0-2.77.05-3.14-2.88,0,0-.34-1.37,1.45-3.01,0,0,1.27-1.09,1.69-3.48"/>
      <path class="st0" d="M81.19,22.23s0,1.97,1.72,3.24c0,0,2.12,1.69,1.64,3.83-.42,1.86-2.56,2.3-3.35,2.3,0,0-2.77.05-3.14-2.88,0,0-.34-1.37,1.45-3.01,0,0,1.27-1.09,1.69-3.48"/>
      <path class="st0" d="M81.19,33.06s0,1.97,1.72,3.24c0,0,2.12,1.69,1.64,3.83-.42,1.86-2.56,2.3-3.35,2.3,0,0-2.77.05-3.14-2.88,0,0-.34-1.37,1.45-3.01,0,0,1.27-1.09,1.69-3.48"/>
      <path class="st0" d="M81.19,43.89s0,1.97,1.72,3.24c0,0,2.12,1.69,1.64,3.83-.42,1.86-2.56,2.3-3.35,2.3,0,0-2.77.05-3.14-2.88,0,0-.34-1.37,1.45-3.01,0,0,1.27-1.09,1.69-3.48"/>
      <path class="st0" d="M81.19,54.72s0,1.97,1.72,3.24c0,0,2.12,1.69,1.64,3.83-.42,1.86-2.56,2.3-3.35,2.3,0,0-2.77.05-3.14-2.88,0,0-.34-1.37,1.45-3.01,0,0,1.27-1.09,1.69-3.48"/>
      <path class="st0" d="M81.19,65.55s0,1.97,1.72,3.24c0,0,2.12,1.69,1.64,3.83-.42,1.86-2.56,2.3-3.35,2.3,0,0-2.77.05-3.14-2.88,0,0-.34-1.37,1.45-3.01,0,0,1.27-1.09,1.69-3.48"/>
      <path class="st0" d="M81.19,76.39s0,1.97,1.72,3.24c0,0,2.12,1.69,1.64,3.83-.42,1.86-2.56,2.3-3.35,2.3,0,0-2.77.05-3.14-2.88,0,0-.34-1.37,1.45-3.01,0,0,1.27-1.09,1.69-3.48"/>
      <path class="st0" d="M81.19,87.22s0,1.97,1.72,3.24c0,0,2.12,1.69,1.64,3.83-.42,1.86-2.56,2.3-3.35,2.3,0,0-2.77.05-3.14-2.88,0,0-.34-1.37,1.45-3.01,0,0,1.27-1.09,1.69-3.48"/>
      <path class="st0" d="M81.19,98.05s0,1.97,1.72,3.24c0,0,2.12,1.69,1.64,3.83-.42,1.86-2.56,2.3-3.35,2.3,0,0-2.77.05-3.14-2.88,0,0-.34-1.37,1.45-3.01,0,0,1.27-1.09,1.69-3.48"/>
      <path class="st0" d="M81.19,108.88s0,1.97,1.72,3.24c0,0,2.12,1.69,1.64,3.83-.42,1.86-2.56,2.3-3.35,2.3,0,0-2.77.05-3.14-2.88,0,0-.34-1.37,1.45-3.01,0,0,1.27-1.09,1.69-3.48"/>
      <path class="st0" d="M81.19,119.71s0,1.97,1.72,3.24c0,0,2.12,1.69,1.64,3.83-.42,1.86-2.56,2.3-3.35,2.3,0,0-2.77.05-3.14-2.88,0,0-.34-1.37,1.45-3.01,0,0,1.27-1.09,1.69-3.48"/>
      <path class="st0" d="M81.19,130.54s0,1.97,1.72,3.24c0,0,2.12,1.69,1.64,3.83-.42,1.86-2.56,2.3-3.35,2.3,0,0-2.77.05-3.14-2.88,0,0-.34-1.37,1.45-3.01,0,0,1.27-1.09,1.69-3.48"/>
      <path class="st0" d="M81.19,141.37s0,1.97,1.72,3.24c0,0,2.12,1.69,1.64,3.83-.42,1.86-2.56,2.3-3.35,2.3,0,0-2.77.05-3.14-2.88,0,0-.34-1.37,1.45-3.01,0,0,1.27-1.09,1.69-3.48"/>
    </g>
    <g>
      <path class="st0" d="M87.78,5.17s0,1.97,1.72,3.24c0,0,2.12,1.69,1.64,3.83-.42,1.86-2.56,2.3-3.35,2.3,0,0-2.77.05-3.14-2.88,0,0-.34-1.37,1.45-3.01,0,0,1.27-1.09,1.69-3.48"/>
      <path class="st0" d="M87.78,16s0,1.97,1.72,3.24c0,0,2.12,1.69,1.64,3.83-.42,1.86-2.56,2.3-3.35,2.3,0,0-2.77.05-3.14-2.88,0,0-.34-1.37,1.45-3.01,0,0,1.27-1.09,1.69-3.48"/>
      <path class="st0" d="M87.78,26.83s0,1.97,1.72,3.24c0,0,2.12,1.69,1.64,3.83-.42,1.86-2.56,2.3-3.35,2.3,0,0-2.77.05-3.14-2.88,0,0-.34-1.37,1.45-3.01,0,0,1.27-1.09,1.69-3.48"/>
      <path class="st0" d="M87.78,37.66s0,1.97,1.72,3.24c0,0,2.12,1.69,1.64,3.83-.42,1.86-2.56,2.3-3.35,2.3,0,0-2.77.05-3.14-2.88,0,0-.34-1.37,1.45-3.01,0,0,1.27-1.09,1.69-3.48"/>
      <path class="st0" d="M87.78,48.49s0,1.97,1.72,3.24c0,0,2.12,1.69,1.64,3.83-.42,1.86-2.56,2.3-3.35,2.3,0,0-2.77.05-3.14-2.88,0,0-.34-1.37,1.45-3.01,0,0,1.27-1.09,1.69-3.48"/>
      <path class="st0" d="M87.78,59.32s0,1.97,1.72,3.24c0,0,2.12,1.69,1.64,3.83-.42,1.86-2.56,2.3-3.35,2.3,0,0-2.77.05-3.14-2.88,0,0-.34-1.37,1.45-3.01,0,0,1.27-1.09,1.69-3.48"/>
      <path class="st0" d="M87.78,70.15s0,1.97,1.72,3.24c0,0,2.12,1.69,1.64,3.83-.42,1.86-2.56,2.3-3.35,2.3,0,0-2.77.05-3.14-2.88,0,0-.34-1.37,1.45-3.01,0,0,1.27-1.09,1.69-3.48"/>
      <path class="st0" d="M87.78,80.99s0,1.97,1.72,3.24c0,0,2.12,1.69,1.64,3.83-.42,1.86-2.56,2.3-3.35,2.3,0,0-2.77.05-3.14-2.88,0,0-.34-1.37,1.45-3.01,0,0,1.27-1.09,1.69-3.48"/>
      <path class="st0" d="M87.78,91.82s0,1.97,1.72,3.24c0,0,2.12,1.69,1.64,3.83-.42,1.86-2.56,2.3-3.35,2.3,0,0-2.77.05-3.14-2.88,0,0-.34-1.37,1.45-3.01,0,0,1.27-1.09,1.69-3.48"/>
      <path class="st0" d="M87.78,102.65s0,1.97,1.72,3.24c0,0,2.12,1.69,1.64,3.83-.42,1.86-2.56,2.3-3.35,2.3,0,0-2.77.05-3.14-2.88,0,0-.34-1.37,1.45-3.01,0,0,1.27-1.09,1.69-3.48"/>
      <path class="st0" d="M87.78,113.48s0,1.97,1.72,3.24c0,0,2.12,1.69,1.64,3.83-.42,1.86-2.56,2.3-3.35,2.3,0,0-2.77.05-3.14-2.88,0,0-.34-1.37,1.45-3.01,0,0,1.27-1.09,1.69-3.48"/>
      <path class="st0" d="M87.78,124.31s0,1.97,1.72,3.24c0,0,2.12,1.69,1.64,3.83-.42,1.86-2.56,2.3-3.35,2.3,0,0-2.77.05-3.14-2.88,0,0-.34-1.37,1.45-3.01,0,0,1.27-1.09,1.69-3.48"/>
      <path class="st0" d="M87.78,135.14s0,1.97,1.72,3.24c0,0,2.12,1.69,1.64,3.83-.42,1.86-2.56,2.3-3.35,2.3,0,0-2.77.05-3.14-2.88,0,0-.34-1.37,1.45-3.01,0,0,1.27-1.09,1.69-3.48"/>
      <path class="st0" d="M87.78,145.97s0,1.97,1.72,3.24c0,0,2.12,1.69,1.64,3.83-.42,1.86-2.56,2.3-3.35,2.3,0,0-2.77.05-3.14-2.88,0,0-.34-1.37,1.45-3.01,0,0,1.27-1.09,1.69-3.48"/>
    </g>
  </g>
  <g class="st1">
    <g>
      <path class="st0" d="M95.53.57s0,1.97,1.72,3.24c0,0,2.12,1.69,1.64,3.83-.42,1.86-2.56,2.3-3.35,2.3,0,0-2.77.05-3.14-2.88,0,0-.34-1.37,1.45-3.01,0,0,1.27-1.09,1.69-3.48"/>
      <path class="st0" d="M95.53,11.4s0,1.97,1.72,3.24c0,0,2.12,1.69,1.64,3.83-.42,1.86-2.56,2.3-3.35,2.3,0,0-2.77.05-3.14-2.88,0,0-.34-1.37,1.45-3.01,0,0,1.27-1.09,1.69-3.48"/>
      <path class="st0" d="M95.53,22.23s0,1.97,1.72,3.24c0,0,2.12,1.69,1.64,3.83-.42,1.86-2.56,2.3-3.35,2.3,0,0-2.77.05-3.14-2.88,0,0-.34-1.37,1.45-3.01,0,0,1.27-1.09,1.69-3.48"/>
      <path class="st0" d="M95.53,33.06s0,1.97,1.72,3.24c0,0,2.12,1.69,1.64,3.83-.42,1.86-2.56,2.3-3.35,2.3,0,0-2.77.05-3.14-2.88,0,0-.34-1.37,1.45-3.01,0,0,1.27-1.09,1.69-3.48"/>
      <path class="st0" d="M95.53,43.89s0,1.97,1.72,3.24c0,0,2.12,1.69,1.64,3.83-.42,1.86-2.56,2.3-3.35,2.3,0,0-2.77.05-3.14-2.88,0,0-.34-1.37,1.45-3.01,0,0,1.27-1.09,1.69-3.48"/>
      <path class="st0" d="M95.53,54.72s0,1.97,1.72,3.24c0,0,2.12,1.69,1.64,3.83-.42,1.86-2.56,2.3-3.35,2.3,0,0-2.77.05-3.14-2.88,0,0-.34-1.37,1.45-3.01,0,0,1.27-1.09,1.69-3.48"/>
      <path class="st0" d="M95.53,65.55s0,1.97,1.72,3.24c0,0,2.12,1.69,1.64,3.83-.42,1.86-2.56,2.3-3.35,2.3,0,0-2.77.05-3.14-2.88,0,0-.34-1.37,1.45-3.01,0,0,1.27-1.09,1.69-3.48"/>
      <path class="st0" d="M95.53,76.39s0,1.97,1.72,3.24c0,0,2.12,1.69,1.64,3.83-.42,1.86-2.56,2.3-3.35,2.3,0,0-2.77.05-3.14-2.88,0,0-.34-1.37,1.45-3.01,0,0,1.27-1.09,1.69-3.48"/>
      <path class="st0" d="M95.53,87.22s0,1.97,1.72,3.24c0,0,2.12,1.69,1.64,3.83-.42,1.86-2.56,2.3-3.35,2.3,0,0-2.77.05-3.14-2.88,0,0-.34-1.37,1.45-3.01,0,0,1.27-1.09,1.69-3.48"/>
      <path class="st0" d="M95.53,98.05s0,1.97,1.72,3.24c0,0,2.12,1.69,1.64,3.83-.42,1.86-2.56,2.3-3.35,2.3,0,0-2.77.05-3.14-2.88,0,0-.34-1.37,1.45-3.01,0,0,1.27-1.09,1.69-3.48"/>
      <path class="st0" d="M95.53,108.88s0,1.97,1.72,3.24c0,0,2.12,1.69,1.64,3.83-.42,1.86-2.56,2.3-3.35,2.3,0,0-2.77.05-3.14-2.88,0,0-.34-1.37,1.45-3.01,0,0,1.27-1.09,1.69-3.48"/>
      <path class="st0" d="M95.53,119.71s0,1.97,1.72,3.24c0,0,2.12,1.69,1.64,3.83-.42,1.86-2.56,2.3-3.35,2.3,0,0-2.77.05-3.14-2.88,0,0-.34-1.37,1.45-3.01,0,0,1.27-1.09,1.69-3.48"/>
      <path class="st0" d="M95.53,130.54s0,1.97,1.72,3.24c0,0,2.12,1.69,1.64,3.83-.42,1.86-2.56,2.3-3.35,2.3,0,0-2.77.05-3.14-2.88,0,0-.34-1.37,1.45-3.01,0,0,1.27-1.09,1.69-3.48"/>
      <path class="st0" d="M95.53,141.37s0,1.97,1.72,3.24c0,0,2.12,1.69,1.64,3.83-.42,1.86-2.56,2.3-3.35,2.3,0,0-2.77.05-3.14-2.88,0,0-.34-1.37,1.45-3.01,0,0,1.27-1.09,1.69-3.48"/>
    </g>
    <g>
      <path class="st0" d="M102.12,5.17s0,1.97,1.72,3.24c0,0,2.12,1.69,1.64,3.83-.42,1.86-2.56,2.3-3.35,2.3,0,0-2.77.05-3.14-2.88,0,0-.34-1.37,1.45-3.01,0,0,1.27-1.09,1.69-3.48"/>
      <path class="st0" d="M102.12,16s0,1.97,1.72,3.24c0,0,2.12,1.69,1.64,3.83-.42,1.86-2.56,2.3-3.35,2.3,0,0-2.77.05-3.14-2.88,0,0-.34-1.37,1.45-3.01,0,0,1.27-1.09,1.69-3.48"/>
      <path class="st0" d="M102.12,26.83s0,1.97,1.72,3.24c0,0,2.12,1.69,1.64,3.83-.42,1.86-2.56,2.3-3.35,2.3,0,0-2.77.05-3.14-2.88,0,0-.34-1.37,1.45-3.01,0,0,1.27-1.09,1.69-3.48"/>
      <path class="st0" d="M102.12,37.66s0,1.97,1.72,3.24c0,0,2.12,1.69,1.64,3.83-.42,1.86-2.56,2.3-3.35,2.3,0,0-2.77.05-3.14-2.88,0,0-.34-1.37,1.45-3.01,0,0,1.27-1.09,1.69-3.48"/>
      <path class="st0" d="M102.12,48.49s0,1.97,1.72,3.24c0,0,2.12,1.69,1.64,3.83-.42,1.86-2.56,2.3-3.35,2.3,0,0-2.77.05-3.14-2.88,0,0-.34-1.37,1.45-3.01,0,0,1.27-1.09,1.69-3.48"/>
      <path class="st0" d="M102.12,59.32s0,1.97,1.72,3.24c0,0,2.12,1.69,1.64,3.83-.42,1.86-2.56,2.3-3.35,2.3,0,0-2.77.05-3.14-2.88,0,0-.34-1.37,1.45-3.01,0,0,1.27-1.09,1.69-3.48"/>
      <path class="st0" d="M102.12,70.15s0,1.97,1.72,3.24c0,0,2.12,1.69,1.64,3.83-.42,1.86-2.56,2.3-3.35,2.3,0,0-2.77.05-3.14-2.88,0,0-.34-1.37,1.45-3.01,0,0,1.27-1.09,1.69-3.48"/>
      <path class="st0" d="M102.12,80.99s0,1.97,1.72,3.24c0,0,2.12,1.69,1.64,3.83-.42,1.86-2.56,2.3-3.35,2.3,0,0-2.77.05-3.14-2.88,0,0-.34-1.37,1.45-3.01,0,0,1.27-1.09,1.69-3.48"/>
      <path class="st0" d="M102.12,91.82s0,1.97,1.72,3.24c0,0,2.12,1.69,1.64,3.83-.42,1.86-2.56,2.3-3.35,2.3,0,0-2.77.05-3.14-2.88,0,0-.34-1.37,1.45-3.01,0,0,1.27-1.09,1.69-3.48"/>
      <path class="st0" d="M102.12,102.65s0,1.97,1.72,3.24c0,0,2.12,1.69,1.64,3.83-.42,1.86-2.56,2.3-3.35,2.3,0,0-2.77.05-3.14-2.88,0,0-.34-1.37,1.45-3.01,0,0,1.27-1.09,1.69-3.48"/>
      <path class="st0" d="M102.12,113.48s0,1.97,1.72,3.24c0,0,2.12,1.69,1.64,3.83-.42,1.86-2.56,2.3-3.35,2.3,0,0-2.77.05-3.14-2.88,0,0-.34-1.37,1.45-3.01,0,0,1.27-1.09,1.69-3.48"/>
      <path class="st0" d="M102.12,124.31s0,1.97,1.72,3.24c0,0,2.12,1.69,1.64,3.83-.42,1.86-2.56,2.3-3.35,2.3,0,0-2.77.05-3.14-2.88,0,0-.34-1.37,1.45-3.01,0,0,1.27-1.09,1.69-3.48"/>
      <path class="st0" d="M102.12,135.14s0,1.97,1.72,3.24c0,0,2.12,1.69,1.64,3.83-.42,1.86-2.56,2.3-3.35,2.3,0,0-2.77.05-3.14-2.88,0,0-.34-1.37,1.45-3.01,0,0,1.27-1.09,1.69-3.48"/>
      <path class="st0" d="M102.12,145.97s0,1.97,1.72,3.24c0,0,2.12,1.69,1.64,3.83-.42,1.86-2.56,2.3-3.35,2.3,0,0-2.77.05-3.14-2.88,0,0-.34-1.37,1.45-3.01,0,0,1.27-1.09,1.69-3.48"/>
    </g>
  </g>
  <g class="st1">
    <g>
      <path class="st0" d="M109.88.57s0,1.97,1.72,3.24c0,0,2.12,1.69,1.64,3.83-.42,1.86-2.56,2.3-3.35,2.3,0,0-2.77.05-3.14-2.88,0,0-.34-1.37,1.45-3.01,0,0,1.27-1.09,1.69-3.48"/>
      <path class="st0" d="M109.88,11.4s0,1.97,1.72,3.24c0,0,2.12,1.69,1.64,3.83-.42,1.86-2.56,2.3-3.35,2.3,0,0-2.77.05-3.14-2.88,0,0-.34-1.37,1.45-3.01,0,0,1.27-1.09,1.69-3.48"/>
      <path class="st0" d="M109.88,22.23s0,1.97,1.72,3.24c0,0,2.12,1.69,1.64,3.83-.42,1.86-2.56,2.3-3.35,2.3,0,0-2.77.05-3.14-2.88,0,0-.34-1.37,1.45-3.01,0,0,1.27-1.09,1.69-3.48"/>
      <path class="st0" d="M109.88,33.06s0,1.97,1.72,3.24c0,0,2.12,1.69,1.64,3.83-.42,1.86-2.56,2.3-3.35,2.3,0,0-2.77.05-3.14-2.88,0,0-.34-1.37,1.45-3.01,0,0,1.27-1.09,1.69-3.48"/>
      <path class="st0" d="M109.88,43.89s0,1.97,1.72,3.24c0,0,2.12,1.69,1.64,3.83-.42,1.86-2.56,2.3-3.35,2.3,0,0-2.77.05-3.14-2.88,0,0-.34-1.37,1.45-3.01,0,0,1.27-1.09,1.69-3.48"/>
      <path class="st0" d="M109.88,54.72s0,1.97,1.72,3.24c0,0,2.12,1.69,1.64,3.83-.42,1.86-2.56,2.3-3.35,2.3,0,0-2.77.05-3.14-2.88,0,0-.34-1.37,1.45-3.01,0,0,1.27-1.09,1.69-3.48"/>
      <path class="st0" d="M109.88,65.55s0,1.97,1.72,3.24c0,0,2.12,1.69,1.64,3.83-.42,1.86-2.56,2.3-3.35,2.3,0,0-2.77.05-3.14-2.88,0,0-.34-1.37,1.45-3.01,0,0,1.27-1.09,1.69-3.48"/>
      <path class="st0" d="M109.88,76.39s0,1.97,1.72,3.24c0,0,2.12,1.69,1.64,3.83-.42,1.86-2.56,2.3-3.35,2.3,0,0-2.77.05-3.14-2.88,0,0-.34-1.37,1.45-3.01,0,0,1.27-1.09,1.69-3.48"/>
      <path class="st0" d="M109.88,87.22s0,1.97,1.72,3.24c0,0,2.12,1.69,1.64,3.83-.42,1.86-2.56,2.3-3.35,2.3,0,0-2.77.05-3.14-2.88,0,0-.34-1.37,1.45-3.01,0,0,1.27-1.09,1.69-3.48"/>
      <path class="st0" d="M109.88,98.05s0,1.97,1.72,3.24c0,0,2.12,1.69,1.64,3.83-.42,1.86-2.56,2.3-3.35,2.3,0,0-2.77.05-3.14-2.88,0,0-.34-1.37,1.45-3.01,0,0,1.27-1.09,1.69-3.48"/>
      <path class="st0" d="M109.88,108.88s0,1.97,1.72,3.24c0,0,2.12,1.69,1.64,3.83-.42,1.86-2.56,2.3-3.35,2.3,0,0-2.77.05-3.14-2.88,0,0-.34-1.37,1.45-3.01,0,0,1.27-1.09,1.69-3.48"/>
      <path class="st0" d="M109.88,119.71s0,1.97,1.72,3.24c0,0,2.12,1.69,1.64,3.83-.42,1.86-2.56,2.3-3.35,2.3,0,0-2.77.05-3.14-2.88,0,0-.34-1.37,1.45-3.01,0,0,1.27-1.09,1.69-3.48"/>
      <path class="st0" d="M109.88,130.54s0,1.97,1.72,3.24c0,0,2.12,1.69,1.64,3.83-.42,1.86-2.56,2.3-3.35,2.3,0,0-2.77.05-3.14-2.88,0,0-.34-1.37,1.45-3.01,0,0,1.27-1.09,1.69-3.48"/>
      <path class="st0" d="M109.88,141.37s0,1.97,1.72,3.24c0,0,2.12,1.69,1.64,3.83-.42,1.86-2.56,2.3-3.35,2.3,0,0-2.77.05-3.14-2.88,0,0-.34-1.37,1.45-3.01,0,0,1.27-1.09,1.69-3.48"/>
    </g>
    <g>
      <path class="st0" d="M116.47,5.17s0,1.97,1.72,3.24c0,0,2.12,1.69,1.64,3.83-.42,1.86-2.56,2.3-3.35,2.3,0,0-2.77.05-3.14-2.88,0,0-.34-1.37,1.45-3.01,0,0,1.27-1.09,1.69-3.48"/>
      <path class="st0" d="M116.47,16s0,1.97,1.72,3.24c0,0,2.12,1.69,1.64,3.83-.42,1.86-2.56,2.3-3.35,2.3,0,0-2.77.05-3.14-2.88,0,0-.34-1.37,1.45-3.01,0,0,1.27-1.09,1.69-3.48"/>
      <path class="st0" d="M116.47,26.83s0,1.97,1.72,3.24c0,0,2.12,1.69,1.64,3.83-.42,1.86-2.56,2.3-3.35,2.3,0,0-2.77.05-3.14-2.88,0,0-.34-1.37,1.45-3.01,0,0,1.27-1.09,1.69-3.48"/>
      <path class="st0" d="M116.47,37.66s0,1.97,1.72,3.24c0,0,2.12,1.69,1.64,3.83-.42,1.86-2.56,2.3-3.35,2.3,0,0-2.77.05-3.14-2.88,0,0-.34-1.37,1.45-3.01,0,0,1.27-1.09,1.69-3.48"/>
      <path class="st0" d="M116.47,48.49s0,1.97,1.72,3.24c0,0,2.12,1.69,1.64,3.83-.42,1.86-2.56,2.3-3.35,2.3,0,0-2.77.05-3.14-2.88,0,0-.34-1.37,1.45-3.01,0,0,1.27-1.09,1.69-3.48"/>
      <path class="st0" d="M116.47,59.32s0,1.97,1.72,3.24c0,0,2.12,1.69,1.64,3.83-.42,1.86-2.56,2.3-3.35,2.3,0,0-2.77.05-3.14-2.88,0,0-.34-1.37,1.45-3.01,0,0,1.27-1.09,1.69-3.48"/>
      <path class="st0" d="M116.47,70.15s0,1.97,1.72,3.24c0,0,2.12,1.69,1.64,3.83-.42,1.86-2.56,2.3-3.35,2.3,0,0-2.77.05-3.14-2.88,0,0-.34-1.37,1.45-3.01,0,0,1.27-1.09,1.69-3.48"/>
      <path class="st0" d="M116.47,80.99s0,1.97,1.72,3.24c0,0,2.12,1.69,1.64,3.83-.42,1.86-2.56,2.3-3.35,2.3,0,0-2.77.05-3.14-2.88,0,0-.34-1.37,1.45-3.01,0,0,1.27-1.09,1.69-3.48"/>
      <path class="st0" d="M116.47,91.82s0,1.97,1.72,3.24c0,0,2.12,1.69,1.64,3.83-.42,1.86-2.56,2.3-3.35,2.3,0,0-2.77.05-3.14-2.88,0,0-.34-1.37,1.45-3.01,0,0,1.27-1.09,1.69-3.48"/>
      <path class="st0" d="M116.47,102.65s0,1.97,1.72,3.24c0,0,2.12,1.69,1.64,3.83-.42,1.86-2.56,2.3-3.35,2.3,0,0-2.77.05-3.14-2.88,0,0-.34-1.37,1.45-3.01,0,0,1.27-1.09,1.69-3.48"/>
      <path class="st0" d="M116.47,113.48s0,1.97,1.72,3.24c0,0,2.12,1.69,1.64,3.83-.42,1.86-2.56,2.3-3.35,2.3,0,0-2.77.05-3.14-2.88,0,0-.34-1.37,1.45-3.01,0,0,1.27-1.09,1.69-3.48"/>
      <path class="st0" d="M116.47,124.31s0,1.97,1.72,3.24c0,0,2.12,1.69,1.64,3.83-.42,1.86-2.56,2.3-3.35,2.3,0,0-2.77.05-3.14-2.88,0,0-.34-1.37,1.45-3.01,0,0,1.27-1.09,1.69-3.48"/>
      <path class="st0" d="M116.47,135.14s0,1.97,1.72,3.24c0,0,2.12,1.69,1.64,3.83-.42,1.86-2.56,2.3-3.35,2.3,0,0-2.77.05-3.14-2.88,0,0-.34-1.37,1.45-3.01,0,0,1.27-1.09,1.69-3.48"/>
      <path class="st0" d="M116.47,145.97s0,1.97,1.72,3.24c0,0,2.12,1.69,1.64,3.83-.42,1.86-2.56,2.3-3.35,2.3,0,0-2.77.05-3.14-2.88,0,0-.34-1.37,1.45-3.01,0,0,1.27-1.09,1.69-3.48"/>
    </g>
  </g>
  <g class="st1">
    <g>
      <path class="st0" d="M124.22.57s0,1.97,1.72,3.24c0,0,2.12,1.69,1.64,3.83-.42,1.86-2.56,2.3-3.35,2.3,0,0-2.77.05-3.14-2.88,0,0-.34-1.37,1.45-3.01,0,0,1.27-1.09,1.69-3.48"/>
      <path class="st0" d="M124.22,11.4s0,1.97,1.72,3.24c0,0,2.12,1.69,1.64,3.83-.42,1.86-2.56,2.3-3.35,2.3,0,0-2.77.05-3.14-2.88,0,0-.34-1.37,1.45-3.01,0,0,1.27-1.09,1.69-3.48"/>
      <path class="st0" d="M124.22,22.23s0,1.97,1.72,3.24c0,0,2.12,1.69,1.64,3.83-.42,1.86-2.56,2.3-3.35,2.3,0,0-2.77.05-3.14-2.88,0,0-.34-1.37,1.45-3.01,0,0,1.27-1.09,1.69-3.48"/>
      <path class="st0" d="M124.22,33.06s0,1.97,1.72,3.24c0,0,2.12,1.69,1.64,3.83-.42,1.86-2.56,2.3-3.35,2.3,0,0-2.77.05-3.14-2.88,0,0-.34-1.37,1.45-3.01,0,0,1.27-1.09,1.69-3.48"/>
      <path class="st0" d="M124.22,43.89s0,1.97,1.72,3.24c0,0,2.12,1.69,1.64,3.83-.42,1.86-2.56,2.3-3.35,2.3,0,0-2.77.05-3.14-2.88,0,0-.34-1.37,1.45-3.01,0,0,1.27-1.09,1.69-3.48"/>
      <path class="st0" d="M124.22,54.72s0,1.97,1.72,3.24c0,0,2.12,1.69,1.64,3.83-.42,1.86-2.56,2.3-3.35,2.3,0,0-2.77.05-3.14-2.88,0,0-.34-1.37,1.45-3.01,0,0,1.27-1.09,1.69-3.48"/>
      <path class="st0" d="M124.22,65.55s0,1.97,1.72,3.24c0,0,2.12,1.69,1.64,3.83-.42,1.86-2.56,2.3-3.35,2.3,0,0-2.77.05-3.14-2.88,0,0-.34-1.37,1.45-3.01,0,0,1.27-1.09,1.69-3.48"/>
      <path class="st0" d="M124.22,76.39s0,1.97,1.72,3.24c0,0,2.12,1.69,1.64,3.83-.42,1.86-2.56,2.3-3.35,2.3,0,0-2.77.05-3.14-2.88,0,0-.34-1.37,1.45-3.01,0,0,1.27-1.09,1.69-3.48"/>
      <path class="st0" d="M124.22,87.22s0,1.97,1.72,3.24c0,0,2.12,1.69,1.64,3.83-.42,1.86-2.56,2.3-3.35,2.3,0,0-2.77.05-3.14-2.88,0,0-.34-1.37,1.45-3.01,0,0,1.27-1.09,1.69-3.48"/>
      <path class="st0" d="M124.22,98.05s0,1.97,1.72,3.24c0,0,2.12,1.69,1.64,3.83-.42,1.86-2.56,2.3-3.35,2.3,0,0-2.77.05-3.14-2.88,0,0-.34-1.37,1.45-3.01,0,0,1.27-1.09,1.69-3.48"/>
      <path class="st0" d="M124.22,108.88s0,1.97,1.72,3.24c0,0,2.12,1.69,1.64,3.83-.42,1.86-2.56,2.3-3.35,2.3,0,0-2.77.05-3.14-2.88,0,0-.34-1.37,1.45-3.01,0,0,1.27-1.09,1.69-3.48"/>
      <path class="st0" d="M124.22,119.71s0,1.97,1.72,3.24c0,0,2.12,1.69,1.64,3.83-.42,1.86-2.56,2.3-3.35,2.3,0,0-2.77.05-3.14-2.88,0,0-.34-1.37,1.45-3.01,0,0,1.27-1.09,1.69-3.48"/>
      <path class="st0" d="M124.22,130.54s0,1.97,1.72,3.24c0,0,2.12,1.69,1.64,3.83-.42,1.86-2.56,2.3-3.35,2.3,0,0-2.77.05-3.14-2.88,0,0-.34-1.37,1.45-3.01,0,0,1.27-1.09,1.69-3.48"/>
      <path class="st0" d="M124.22,141.37s0,1.97,1.72,3.24c0,0,2.12,1.69,1.64,3.83-.42,1.86-2.56,2.3-3.35,2.3,0,0-2.77.05-3.14-2.88,0,0-.34-1.37,1.45-3.01,0,0,1.27-1.09,1.69-3.48"/>
    </g>
    <g>
      <path class="st0" d="M130.81,5.17s0,1.97,1.72,3.24c0,0,2.12,1.69,1.64,3.83-.42,1.86-2.56,2.3-3.35,2.3,0,0-2.77.05-3.14-2.88,0,0-.34-1.37,1.45-3.01,0,0,1.27-1.09,1.69-3.48"/>
      <path class="st0" d="M130.81,16s0,1.97,1.72,3.24c0,0,2.12,1.69,1.64,3.83-.42,1.86-2.56,2.3-3.35,2.3,0,0-2.77.05-3.14-2.88,0,0-.34-1.37,1.45-3.01,0,0,1.27-1.09,1.69-3.48"/>
      <path class="st0" d="M130.81,26.83s0,1.97,1.72,3.24c0,0,2.12,1.69,1.64,3.83-.42,1.86-2.56,2.3-3.35,2.3,0,0-2.77.05-3.14-2.88,0,0-.34-1.37,1.45-3.01,0,0,1.27-1.09,1.69-3.48"/>
      <path class="st0" d="M130.81,37.66s0,1.97,1.72,3.24c0,0,2.12,1.69,1.64,3.83-.42,1.86-2.56,2.3-3.35,2.3,0,0-2.77.05-3.14-2.88,0,0-.34-1.37,1.45-3.01,0,0,1.27-1.09,1.69-3.48"/>
      <path class="st0" d="M130.81,48.49s0,1.97,1.72,3.24c0,0,2.12,1.69,1.64,3.83-.42,1.86-2.56,2.3-3.35,2.3,0,0-2.77.05-3.14-2.88,0,0-.34-1.37,1.45-3.01,0,0,1.27-1.09,1.69-3.48"/>
      <path class="st0" d="M130.81,59.32s0,1.97,1.72,3.24c0,0,2.12,1.69,1.64,3.83-.42,1.86-2.56,2.3-3.35,2.3,0,0-2.77.05-3.14-2.88,0,0-.34-1.37,1.45-3.01,0,0,1.27-1.09,1.69-3.48"/>
      <path class="st0" d="M130.81,70.15s0,1.97,1.72,3.24c0,0,2.12,1.69,1.64,3.83-.42,1.86-2.56,2.3-3.35,2.3,0,0-2.77.05-3.14-2.88,0,0-.34-1.37,1.45-3.01,0,0,1.27-1.09,1.69-3.48"/>
      <path class="st0" d="M130.81,80.99s0,1.97,1.72,3.24c0,0,2.12,1.69,1.64,3.83-.42,1.86-2.56,2.3-3.35,2.3,0,0-2.77.05-3.14-2.88,0,0-.34-1.37,1.45-3.01,0,0,1.27-1.09,1.69-3.48"/>
      <path class="st0" d="M130.81,91.82s0,1.97,1.72,3.24c0,0,2.12,1.69,1.64,3.83-.42,1.86-2.56,2.3-3.35,2.3,0,0-2.77.05-3.14-2.88,0,0-.34-1.37,1.45-3.01,0,0,1.27-1.09,1.69-3.48"/>
      <path class="st0" d="M130.81,102.65s0,1.97,1.72,3.24c0,0,2.12,1.69,1.64,3.83-.42,1.86-2.56,2.3-3.35,2.3,0,0-2.77.05-3.14-2.88,0,0-.34-1.37,1.45-3.01,0,0,1.27-1.09,1.69-3.48"/>
      <path class="st0" d="M130.81,113.48s0,1.97,1.72,3.24c0,0,2.12,1.69,1.64,3.83-.42,1.86-2.56,2.3-3.35,2.3,0,0-2.77.05-3.14-2.88,0,0-.34-1.37,1.45-3.01,0,0,1.27-1.09,1.69-3.48"/>
      <path class="st0" d="M130.81,124.31s0,1.97,1.72,3.24c0,0,2.12,1.69,1.64,3.83-.42,1.86-2.56,2.3-3.35,2.3,0,0-2.77.05-3.14-2.88,0,0-.34-1.37,1.45-3.01,0,0,1.27-1.09,1.69-3.48"/>
      <path class="st0" d="M130.81,135.14s0,1.97,1.72,3.24c0,0,2.12,1.69,1.64,3.83-.42,1.86-2.56,2.3-3.35,2.3,0,0-2.77.05-3.14-2.88,0,0-.34-1.37,1.45-3.01,0,0,1.27-1.09,1.69-3.48"/>
      <path class="st0" d="M130.81,145.97s0,1.97,1.72,3.24c0,0,2.12,1.69,1.64,3.83-.42,1.86-2.56,2.3-3.35,2.3,0,0-2.77.05-3.14-2.88,0,0-.34-1.37,1.45-3.01,0,0,1.27-1.09,1.69-3.48"/>
    </g>
  </g>
  <g class="st1">
    <g>
      <path class="st0" d="M138.56.57s0,1.97,1.72,3.24c0,0,2.12,1.69,1.64,3.83-.42,1.86-2.56,2.3-3.35,2.3,0,0-2.77.05-3.14-2.88,0,0-.34-1.37,1.45-3.01,0,0,1.27-1.09,1.69-3.48"/>
      <path class="st0" d="M138.56,11.4s0,1.97,1.72,3.24c0,0,2.12,1.69,1.64,3.83-.42,1.86-2.56,2.3-3.35,2.3,0,0-2.77.05-3.14-2.88,0,0-.34-1.37,1.45-3.01,0,0,1.27-1.09,1.69-3.48"/>
      <path class="st0" d="M138.56,22.23s0,1.97,1.72,3.24c0,0,2.12,1.69,1.64,3.83-.42,1.86-2.56,2.3-3.35,2.3,0,0-2.77.05-3.14-2.88,0,0-.34-1.37,1.45-3.01,0,0,1.27-1.09,1.69-3.48"/>
      <path class="st0" d="M138.56,33.06s0,1.97,1.72,3.24c0,0,2.12,1.69,1.64,3.83-.42,1.86-2.56,2.3-3.35,2.3,0,0-2.77.05-3.14-2.88,0,0-.34-1.37,1.45-3.01,0,0,1.27-1.09,1.69-3.48"/>
      <path class="st0" d="M138.56,43.89s0,1.97,1.72,3.24c0,0,2.12,1.69,1.64,3.83-.42,1.86-2.56,2.3-3.35,2.3,0,0-2.77.05-3.14-2.88,0,0-.34-1.37,1.45-3.01,0,0,1.27-1.09,1.69-3.48"/>
      <path class="st0" d="M138.56,54.72s0,1.97,1.72,3.24c0,0,2.12,1.69,1.64,3.83-.42,1.86-2.56,2.3-3.35,2.3,0,0-2.77.05-3.14-2.88,0,0-.34-1.37,1.45-3.01,0,0,1.27-1.09,1.69-3.48"/>
      <path class="st0" d="M138.56,65.55s0,1.97,1.72,3.24c0,0,2.12,1.69,1.64,3.83-.42,1.86-2.56,2.3-3.35,2.3,0,0-2.77.05-3.14-2.88,0,0-.34-1.37,1.45-3.01,0,0,1.27-1.09,1.69-3.48"/>
      <path class="st0" d="M138.56,76.39s0,1.97,1.72,3.24c0,0,2.12,1.69,1.64,3.83-.42,1.86-2.56,2.3-3.35,2.3,0,0-2.77.05-3.14-2.88,0,0-.34-1.37,1.45-3.01,0,0,1.27-1.09,1.69-3.48"/>
      <path class="st0" d="M138.56,87.22s0,1.97,1.72,3.24c0,0,2.12,1.69,1.64,3.83-.42,1.86-2.56,2.3-3.35,2.3,0,0-2.77.05-3.14-2.88,0,0-.34-1.37,1.45-3.01,0,0,1.27-1.09,1.69-3.48"/>
      <path class="st0" d="M138.56,98.05s0,1.97,1.72,3.24c0,0,2.12,1.69,1.64,3.83-.42,1.86-2.56,2.3-3.35,2.3,0,0-2.77.05-3.14-2.88,0,0-.34-1.37,1.45-3.01,0,0,1.27-1.09,1.69-3.48"/>
      <path class="st0" d="M138.56,108.88s0,1.97,1.72,3.24c0,0,2.12,1.69,1.64,3.83-.42,1.86-2.56,2.3-3.35,2.3,0,0-2.77.05-3.14-2.88,0,0-.34-1.37,1.45-3.01,0,0,1.27-1.09,1.69-3.48"/>
      <path class="st0" d="M138.56,119.71s0,1.97,1.72,3.24c0,0,2.12,1.69,1.64,3.83-.42,1.86-2.56,2.3-3.35,2.3,0,0-2.77.05-3.14-2.88,0,0-.34-1.37,1.45-3.01,0,0,1.27-1.09,1.69-3.48"/>
      <path class="st0" d="M138.56,130.54s0,1.97,1.72,3.24c0,0,2.12,1.69,1.64,3.83-.42,1.86-2.56,2.3-3.35,2.3,0,0-2.77.05-3.14-2.88,0,0-.34-1.37,1.45-3.01,0,0,1.27-1.09,1.69-3.48"/>
      <path class="st0" d="M138.56,141.37s0,1.97,1.72,3.24c0,0,2.12,1.69,1.64,3.83-.42,1.86-2.56,2.3-3.35,2.3,0,0-2.77.05-3.14-2.88,0,0-.34-1.37,1.45-3.01,0,0,1.27-1.09,1.69-3.48"/>
    </g>
    <g>
      <path class="st0" d="M145.16,5.17s0,1.97,1.72,3.24c0,0,2.12,1.69,1.64,3.83-.42,1.86-2.56,2.3-3.35,2.3,0,0-2.77.05-3.14-2.88,0,0-.34-1.37,1.45-3.01,0,0,1.27-1.09,1.69-3.48"/>
      <path class="st0" d="M145.16,16s0,1.97,1.72,3.24c0,0,2.12,1.69,1.64,3.83-.42,1.86-2.56,2.3-3.35,2.3,0,0-2.77.05-3.14-2.88,0,0-.34-1.37,1.45-3.01,0,0,1.27-1.09,1.69-3.48"/>
      <path class="st0" d="M145.16,26.83s0,1.97,1.72,3.24c0,0,2.12,1.69,1.64,3.83-.42,1.86-2.56,2.3-3.35,2.3,0,0-2.77.05-3.14-2.88,0,0-.34-1.37,1.45-3.01,0,0,1.27-1.09,1.69-3.48"/>
      <path class="st0" d="M145.16,37.66s0,1.97,1.72,3.24c0,0,2.12,1.69,1.64,3.83-.42,1.86-2.56,2.3-3.35,2.3,0,0-2.77.05-3.14-2.88,0,0-.34-1.37,1.45-3.01,0,0,1.27-1.09,1.69-3.48"/>
      <path class="st0" d="M145.16,48.49s0,1.97,1.72,3.24c0,0,2.12,1.69,1.64,3.83-.42,1.86-2.56,2.3-3.35,2.3,0,0-2.77.05-3.14-2.88,0,0-.34-1.37,1.45-3.01,0,0,1.27-1.09,1.69-3.48"/>
      <path class="st0" d="M145.16,59.32s0,1.97,1.72,3.24c0,0,2.12,1.69,1.64,3.83-.42,1.86-2.56,2.3-3.35,2.3,0,0-2.77.05-3.14-2.88,0,0-.34-1.37,1.45-3.01,0,0,1.27-1.09,1.69-3.48"/>
      <path class="st0" d="M145.16,70.15s0,1.97,1.72,3.24c0,0,2.12,1.69,1.64,3.83-.42,1.86-2.56,2.3-3.35,2.3,0,0-2.77.05-3.14-2.88,0,0-.34-1.37,1.45-3.01,0,0,1.27-1.09,1.69-3.48"/>
      <path class="st0" d="M145.16,80.99s0,1.97,1.72,3.24c0,0,2.12,1.69,1.64,3.83-.42,1.86-2.56,2.3-3.35,2.3,0,0-2.77.05-3.14-2.88,0,0-.34-1.37,1.45-3.01,0,0,1.27-1.09,1.69-3.48"/>
      <path class="st0" d="M145.16,91.82s0,1.97,1.72,3.24c0,0,2.12,1.69,1.64,3.83-.42,1.86-2.56,2.3-3.35,2.3,0,0-2.77.05-3.14-2.88,0,0-.34-1.37,1.45-3.01,0,0,1.27-1.09,1.69-3.48"/>
      <path class="st0" d="M145.16,102.65s0,1.97,1.72,3.24c0,0,2.12,1.69,1.64,3.83-.42,1.86-2.56,2.3-3.35,2.3,0,0-2.77.05-3.14-2.88,0,0-.34-1.37,1.45-3.01,0,0,1.27-1.09,1.69-3.48"/>
      <path class="st0" d="M145.16,113.48s0,1.97,1.72,3.24c0,0,2.12,1.69,1.64,3.83-.42,1.86-2.56,2.3-3.35,2.3,0,0-2.77.05-3.14-2.88,0,0-.34-1.37,1.45-3.01,0,0,1.27-1.09,1.69-3.48"/>
      <path class="st0" d="M145.16,124.31s0,1.97,1.72,3.24c0,0,2.12,1.69,1.64,3.83-.42,1.86-2.56,2.3-3.35,2.3,0,0-2.77.05-3.14-2.88,0,0-.34-1.37,1.45-3.01,0,0,1.27-1.09,1.69-3.48"/>
      <path class="st0" d="M145.16,135.14s0,1.97,1.72,3.24c0,0,2.12,1.69,1.64,3.83-.42,1.86-2.56,2.3-3.35,2.3,0,0-2.77.05-3.14-2.88,0,0-.34-1.37,1.45-3.01,0,0,1.27-1.09,1.69-3.48"/>
      <path class="st0" d="M145.16,145.97s0,1.97,1.72,3.24c0,0,2.12,1.69,1.64,3.83-.42,1.86-2.56,2.3-3.35,2.3,0,0-2.77.05-3.14-2.88,0,0-.34-1.37,1.45-3.01,0,0,1.27-1.09,1.69-3.48"/>
    </g>
  </g>
  <g class="st1">
    <g>
      <path class="st0" d="M152.91.57s0,1.97,1.72,3.24c0,0,2.12,1.69,1.64,3.83-.42,1.86-2.56,2.3-3.35,2.3,0,0-2.77.05-3.14-2.88,0,0-.34-1.37,1.45-3.01,0,0,1.27-1.09,1.69-3.48"/>
      <path class="st0" d="M152.91,11.4s0,1.97,1.72,3.24c0,0,2.12,1.69,1.64,3.83-.42,1.86-2.56,2.3-3.35,2.3,0,0-2.77.05-3.14-2.88,0,0-.34-1.37,1.45-3.01,0,0,1.27-1.09,1.69-3.48"/>
      <path class="st0" d="M152.91,22.23s0,1.97,1.72,3.24c0,0,2.12,1.69,1.64,3.83-.42,1.86-2.56,2.3-3.35,2.3,0,0-2.77.05-3.14-2.88,0,0-.34-1.37,1.45-3.01,0,0,1.27-1.09,1.69-3.48"/>
      <path class="st0" d="M152.91,33.06s0,1.97,1.72,3.24c0,0,2.12,1.69,1.64,3.83-.42,1.86-2.56,2.3-3.35,2.3,0,0-2.77.05-3.14-2.88,0,0-.34-1.37,1.45-3.01,0,0,1.27-1.09,1.69-3.48"/>
      <path class="st0" d="M152.91,43.89s0,1.97,1.72,3.24c0,0,2.12,1.69,1.64,3.83-.42,1.86-2.56,2.3-3.35,2.3,0,0-2.77.05-3.14-2.88,0,0-.34-1.37,1.45-3.01,0,0,1.27-1.09,1.69-3.48"/>
      <path class="st0" d="M152.91,54.72s0,1.97,1.72,3.24c0,0,2.12,1.69,1.64,3.83-.42,1.86-2.56,2.3-3.35,2.3,0,0-2.77.05-3.14-2.88,0,0-.34-1.37,1.45-3.01,0,0,1.27-1.09,1.69-3.48"/>
      <path class="st0" d="M152.91,65.55s0,1.97,1.72,3.24c0,0,2.12,1.69,1.64,3.83-.42,1.86-2.56,2.3-3.35,2.3,0,0-2.77.05-3.14-2.88,0,0-.34-1.37,1.45-3.01,0,0,1.27-1.09,1.69-3.48"/>
      <path class="st0" d="M152.91,76.39s0,1.97,1.72,3.24c0,0,2.12,1.69,1.64,3.83-.42,1.86-2.56,2.3-3.35,2.3,0,0-2.77.05-3.14-2.88,0,0-.34-1.37,1.45-3.01,0,0,1.27-1.09,1.69-3.48"/>
      <path class="st0" d="M152.91,87.22s0,1.97,1.72,3.24c0,0,2.12,1.69,1.64,3.83-.42,1.86-2.56,2.3-3.35,2.3,0,0-2.77.05-3.14-2.88,0,0-.34-1.37,1.45-3.01,0,0,1.27-1.09,1.69-3.48"/>
      <path class="st0" d="M152.91,98.05s0,1.97,1.72,3.24c0,0,2.12,1.69,1.64,3.83-.42,1.86-2.56,2.3-3.35,2.3,0,0-2.77.05-3.14-2.88,0,0-.34-1.37,1.45-3.01,0,0,1.27-1.09,1.69-3.48"/>
      <path class="st0" d="M152.91,108.88s0,1.97,1.72,3.24c0,0,2.12,1.69,1.64,3.83-.42,1.86-2.56,2.3-3.35,2.3,0,0-2.77.05-3.14-2.88,0,0-.34-1.37,1.45-3.01,0,0,1.27-1.09,1.69-3.48"/>
      <path class="st0" d="M152.91,119.71s0,1.97,1.72,3.24c0,0,2.12,1.69,1.64,3.83-.42,1.86-2.56,2.3-3.35,2.3,0,0-2.77.05-3.14-2.88,0,0-.34-1.37,1.45-3.01,0,0,1.27-1.09,1.69-3.48"/>
      <path class="st0" d="M152.91,130.54s0,1.97,1.72,3.24c0,0,2.12,1.69,1.64,3.83-.42,1.86-2.56,2.3-3.35,2.3,0,0-2.77.05-3.14-2.88,0,0-.34-1.37,1.45-3.01,0,0,1.27-1.09,1.69-3.48"/>
      <path class="st0" d="M152.91,141.37s0,1.97,1.72,3.24c0,0,2.12,1.69,1.64,3.83-.42,1.86-2.56,2.3-3.35,2.3,0,0-2.77.05-3.14-2.88,0,0-.34-1.37,1.45-3.01,0,0,1.27-1.09,1.69-3.48"/>
    </g>
    <g>
      <path class="st0" d="M159.5,5.17s0,1.97,1.72,3.24c0,0,2.12,1.69,1.64,3.83-.42,1.86-2.56,2.3-3.35,2.3,0,0-2.77.05-3.14-2.88,0,0-.34-1.37,1.45-3.01,0,0,1.27-1.09,1.69-3.48"/>
      <path class="st0" d="M159.5,16s0,1.97,1.72,3.24c0,0,2.12,1.69,1.64,3.83-.42,1.86-2.56,2.3-3.35,2.3,0,0-2.77.05-3.14-2.88,0,0-.34-1.37,1.45-3.01,0,0,1.27-1.09,1.69-3.48"/>
      <path class="st0" d="M159.5,26.83s0,1.97,1.72,3.24c0,0,2.12,1.69,1.64,3.83-.42,1.86-2.56,2.3-3.35,2.3,0,0-2.77.05-3.14-2.88,0,0-.34-1.37,1.45-3.01,0,0,1.27-1.09,1.69-3.48"/>
      <path class="st0" d="M159.5,37.66s0,1.97,1.72,3.24c0,0,2.12,1.69,1.64,3.83-.42,1.86-2.56,2.3-3.35,2.3,0,0-2.77.05-3.14-2.88,0,0-.34-1.37,1.45-3.01,0,0,1.27-1.09,1.69-3.48"/>
      <path class="st0" d="M159.5,48.49s0,1.97,1.72,3.24c0,0,2.12,1.69,1.64,3.83-.42,1.86-2.56,2.3-3.35,2.3,0,0-2.77.05-3.14-2.88,0,0-.34-1.37,1.45-3.01,0,0,1.27-1.09,1.69-3.48"/>
      <path class="st0" d="M159.5,59.32s0,1.97,1.72,3.24c0,0,2.12,1.69,1.64,3.83-.42,1.86-2.56,2.3-3.35,2.3,0,0-2.77.05-3.14-2.88,0,0-.34-1.37,1.45-3.01,0,0,1.27-1.09,1.69-3.48"/>
      <path class="st0" d="M159.5,70.15s0,1.97,1.72,3.24c0,0,2.12,1.69,1.64,3.83-.42,1.86-2.56,2.3-3.35,2.3,0,0-2.77.05-3.14-2.88,0,0-.34-1.37,1.45-3.01,0,0,1.27-1.09,1.69-3.48"/>
      <path class="st0" d="M159.5,80.99s0,1.97,1.72,3.24c0,0,2.12,1.69,1.64,3.83-.42,1.86-2.56,2.3-3.35,2.3,0,0-2.77.05-3.14-2.88,0,0-.34-1.37,1.45-3.01,0,0,1.27-1.09,1.69-3.48"/>
      <path class="st0" d="M159.5,91.82s0,1.97,1.72,3.24c0,0,2.12,1.69,1.64,3.83-.42,1.86-2.56,2.3-3.35,2.3,0,0-2.77.05-3.14-2.88,0,0-.34-1.37,1.45-3.01,0,0,1.27-1.09,1.69-3.48"/>
      <path class="st0" d="M159.5,102.65s0,1.97,1.72,3.24c0,0,2.12,1.69,1.64,3.83-.42,1.86-2.56,2.3-3.35,2.3,0,0-2.77.05-3.14-2.88,0,0-.34-1.37,1.45-3.01,0,0,1.27-1.09,1.69-3.48"/>
      <path class="st0" d="M159.5,113.48s0,1.97,1.72,3.24c0,0,2.12,1.69,1.64,3.83-.42,1.86-2.56,2.3-3.35,2.3,0,0-2.77.05-3.14-2.88,0,0-.34-1.37,1.45-3.01,0,0,1.27-1.09,1.69-3.48"/>
      <path class="st0" d="M159.5,124.31s0,1.97,1.72,3.24c0,0,2.12,1.69,1.64,3.83-.42,1.86-2.56,2.3-3.35,2.3,0,0-2.77.05-3.14-2.88,0,0-.34-1.37,1.45-3.01,0,0,1.27-1.09,1.69-3.48"/>
      <path class="st0" d="M159.5,135.14s0,1.97,1.72,3.24c0,0,2.12,1.69,1.64,3.83-.42,1.86-2.56,2.3-3.35,2.3,0,0-2.77.05-3.14-2.88,0,0-.34-1.37,1.45-3.01,0,0,1.27-1.09,1.69-3.48"/>
      <path class="st0" d="M159.5,145.97s0,1.97,1.72,3.24c0,0,2.12,1.69,1.64,3.83-.42,1.86-2.56,2.3-3.35,2.3,0,0-2.77.05-3.14-2.88,0,0-.34-1.37,1.45-3.01,0,0,1.27-1.09,1.69-3.48"/>
    </g>
  </g>
  <g class="st1">
    <g>
      <path class="st0" d="M167.25.57s0,1.97,1.72,3.24c0,0,2.12,1.69,1.64,3.83-.42,1.86-2.56,2.3-3.35,2.3,0,0-2.77.05-3.14-2.88,0,0-.34-1.37,1.45-3.01,0,0,1.27-1.09,1.69-3.48"/>
      <path class="st0" d="M167.25,11.4s0,1.97,1.72,3.24c0,0,2.12,1.69,1.64,3.83-.42,1.86-2.56,2.3-3.35,2.3,0,0-2.77.05-3.14-2.88,0,0-.34-1.37,1.45-3.01,0,0,1.27-1.09,1.69-3.48"/>
      <path class="st0" d="M167.25,22.23s0,1.97,1.72,3.24c0,0,2.12,1.69,1.64,3.83-.42,1.86-2.56,2.3-3.35,2.3,0,0-2.77.05-3.14-2.88,0,0-.34-1.37,1.45-3.01,0,0,1.27-1.09,1.69-3.48"/>
      <path class="st0" d="M167.25,33.06s0,1.97,1.72,3.24c0,0,2.12,1.69,1.64,3.83-.42,1.86-2.56,2.3-3.35,2.3,0,0-2.77.05-3.14-2.88,0,0-.34-1.37,1.45-3.01,0,0,1.27-1.09,1.69-3.48"/>
      <path class="st0" d="M167.25,43.89s0,1.97,1.72,3.24c0,0,2.12,1.69,1.64,3.83-.42,1.86-2.56,2.3-3.35,2.3,0,0-2.77.05-3.14-2.88,0,0-.34-1.37,1.45-3.01,0,0,1.27-1.09,1.69-3.48"/>
      <path class="st0" d="M167.25,54.72s0,1.97,1.72,3.24c0,0,2.12,1.69,1.64,3.83-.42,1.86-2.56,2.3-3.35,2.3,0,0-2.77.05-3.14-2.88,0,0-.34-1.37,1.45-3.01,0,0,1.27-1.09,1.69-3.48"/>
      <path class="st0" d="M167.25,65.55s0,1.97,1.72,3.24c0,0,2.12,1.69,1.64,3.83-.42,1.86-2.56,2.3-3.35,2.3,0,0-2.77.05-3.14-2.88,0,0-.34-1.37,1.45-3.01,0,0,1.27-1.09,1.69-3.48"/>
      <path class="st0" d="M167.25,76.39s0,1.97,1.72,3.24c0,0,2.12,1.69,1.64,3.83-.42,1.86-2.56,2.3-3.35,2.3,0,0-2.77.05-3.14-2.88,0,0-.34-1.37,1.45-3.01,0,0,1.27-1.09,1.69-3.48"/>
      <path class="st0" d="M167.25,87.22s0,1.97,1.72,3.24c0,0,2.12,1.69,1.64,3.83-.42,1.86-2.56,2.3-3.35,2.3,0,0-2.77.05-3.14-2.88,0,0-.34-1.37,1.45-3.01,0,0,1.27-1.09,1.69-3.48"/>
      <path class="st0" d="M167.25,98.05s0,1.97,1.72,3.24c0,0,2.12,1.69,1.64,3.83-.42,1.86-2.56,2.3-3.35,2.3,0,0-2.77.05-3.14-2.88,0,0-.34-1.37,1.45-3.01,0,0,1.27-1.09,1.69-3.48"/>
      <path class="st0" d="M167.25,108.88s0,1.97,1.72,3.24c0,0,2.12,1.69,1.64,3.83-.42,1.86-2.56,2.3-3.35,2.3,0,0-2.77.05-3.14-2.88,0,0-.34-1.37,1.45-3.01,0,0,1.27-1.09,1.69-3.48"/>
      <path class="st0" d="M167.25,119.71s0,1.97,1.72,3.24c0,0,2.12,1.69,1.64,3.83-.42,1.86-2.56,2.3-3.35,2.3,0,0-2.77.05-3.14-2.88,0,0-.34-1.37,1.45-3.01,0,0,1.27-1.09,1.69-3.48"/>
      <path class="st0" d="M167.25,130.54s0,1.97,1.72,3.24c0,0,2.12,1.69,1.64,3.83-.42,1.86-2.56,2.3-3.35,2.3,0,0-2.77.05-3.14-2.88,0,0-.34-1.37,1.45-3.01,0,0,1.27-1.09,1.69-3.48"/>
      <path class="st0" d="M167.25,141.37s0,1.97,1.72,3.24c0,0,2.12,1.69,1.64,3.83-.42,1.86-2.56,2.3-3.35,2.3,0,0-2.77.05-3.14-2.88,0,0-.34-1.37,1.45-3.01,0,0,1.27-1.09,1.69-3.48"/>
    </g>
    <g>
      <path class="st0" d="M173.85,5.17s0,1.97,1.72,3.24c0,0,2.12,1.69,1.64,3.83-.42,1.86-2.56,2.3-3.35,2.3,0,0-2.77.05-3.14-2.88,0,0-.34-1.37,1.45-3.01,0,0,1.27-1.09,1.69-3.48"/>
      <path class="st0" d="M173.85,16s0,1.97,1.72,3.24c0,0,2.12,1.69,1.64,3.83-.42,1.86-2.56,2.3-3.35,2.3,0,0-2.77.05-3.14-2.88,0,0-.34-1.37,1.45-3.01,0,0,1.27-1.09,1.69-3.48"/>
      <path class="st0" d="M173.85,26.83s0,1.97,1.72,3.24c0,0,2.12,1.69,1.64,3.83-.42,1.86-2.56,2.3-3.35,2.3,0,0-2.77.05-3.14-2.88,0,0-.34-1.37,1.45-3.01,0,0,1.27-1.09,1.69-3.48"/>
      <path class="st0" d="M173.85,37.66s0,1.97,1.72,3.24c0,0,2.12,1.69,1.64,3.83-.42,1.86-2.56,2.3-3.35,2.3,0,0-2.77.05-3.14-2.88,0,0-.34-1.37,1.45-3.01,0,0,1.27-1.09,1.69-3.48"/>
      <path class="st0" d="M173.85,48.49s0,1.97,1.72,3.24c0,0,2.12,1.69,1.64,3.83-.42,1.86-2.56,2.3-3.35,2.3,0,0-2.77.05-3.14-2.88,0,0-.34-1.37,1.45-3.01,0,0,1.27-1.09,1.69-3.48"/>
      <path class="st0" d="M173.85,59.32s0,1.97,1.72,3.24c0,0,2.12,1.69,1.64,3.83-.42,1.86-2.56,2.3-3.35,2.3,0,0-2.77.05-3.14-2.88,0,0-.34-1.37,1.45-3.01,0,0,1.27-1.09,1.69-3.48"/>
      <path class="st0" d="M173.85,70.15s0,1.97,1.72,3.24c0,0,2.12,1.69,1.64,3.83-.42,1.86-2.56,2.3-3.35,2.3,0,0-2.77.05-3.14-2.88,0,0-.34-1.37,1.45-3.01,0,0,1.27-1.09,1.69-3.48"/>
      <path class="st0" d="M173.85,80.99s0,1.97,1.72,3.24c0,0,2.12,1.69,1.64,3.83-.42,1.86-2.56,2.3-3.35,2.3,0,0-2.77.05-3.14-2.88,0,0-.34-1.37,1.45-3.01,0,0,1.27-1.09,1.69-3.48"/>
      <path class="st0" d="M173.85,91.82s0,1.97,1.72,3.24c0,0,2.12,1.69,1.64,3.83-.42,1.86-2.56,2.3-3.35,2.3,0,0-2.77.05-3.14-2.88,0,0-.34-1.37,1.45-3.01,0,0,1.27-1.09,1.69-3.48"/>
      <path class="st0" d="M173.85,102.65s0,1.97,1.72,3.24c0,0,2.12,1.69,1.64,3.83-.42,1.86-2.56,2.3-3.35,2.3,0,0-2.77.05-3.14-2.88,0,0-.34-1.37,1.45-3.01,0,0,1.27-1.09,1.69-3.48"/>
      <path class="st0" d="M173.85,113.48s0,1.97,1.72,3.24c0,0,2.12,1.69,1.64,3.83-.42,1.86-2.56,2.3-3.35,2.3,0,0-2.77.05-3.14-2.88,0,0-.34-1.37,1.45-3.01,0,0,1.27-1.09,1.69-3.48"/>
      <path class="st0" d="M173.85,124.31s0,1.97,1.72,3.24c0,0,2.12,1.69,1.64,3.83-.42,1.86-2.56,2.3-3.35,2.3,0,0-2.77.05-3.14-2.88,0,0-.34-1.37,1.45-3.01,0,0,1.27-1.09,1.69-3.48"/>
      <path class="st0" d="M173.85,135.14s0,1.97,1.72,3.24c0,0,2.12,1.69,1.64,3.83-.42,1.86-2.56,2.3-3.35,2.3,0,0-2.77.05-3.14-2.88,0,0-.34-1.37,1.45-3.01,0,0,1.27-1.09,1.69-3.48"/>
      <path class="st0" d="M173.85,145.97s0,1.97,1.72,3.24c0,0,2.12,1.69,1.64,3.83-.42,1.86-2.56,2.3-3.35,2.3,0,0-2.77.05-3.14-2.88,0,0-.34-1.37,1.45-3.01,0,0,1.27-1.09,1.69-3.48"/>
    </g>
  </g>
  <g class="st1">
    <g>
      <path class="st0" d="M181.6.57s0,1.97,1.72,3.24c0,0,2.12,1.69,1.64,3.83-.42,1.86-2.56,2.3-3.35,2.3,0,0-2.77.05-3.14-2.88,0,0-.34-1.37,1.45-3.01,0,0,1.27-1.09,1.69-3.48"/>
      <path class="st0" d="M181.6,11.4s0,1.97,1.72,3.24c0,0,2.12,1.69,1.64,3.83-.42,1.86-2.56,2.3-3.35,2.3,0,0-2.77.05-3.14-2.88,0,0-.34-1.37,1.45-3.01,0,0,1.27-1.09,1.69-3.48"/>
      <path class="st0" d="M181.6,22.23s0,1.97,1.72,3.24c0,0,2.12,1.69,1.64,3.83-.42,1.86-2.56,2.3-3.35,2.3,0,0-2.77.05-3.14-2.88,0,0-.34-1.37,1.45-3.01,0,0,1.27-1.09,1.69-3.48"/>
      <path class="st0" d="M181.6,33.06s0,1.97,1.72,3.24c0,0,2.12,1.69,1.64,3.83-.42,1.86-2.56,2.3-3.35,2.3,0,0-2.77.05-3.14-2.88,0,0-.34-1.37,1.45-3.01,0,0,1.27-1.09,1.69-3.48"/>
      <path class="st0" d="M181.6,43.89s0,1.97,1.72,3.24c0,0,2.12,1.69,1.64,3.83-.42,1.86-2.56,2.3-3.35,2.3,0,0-2.77.05-3.14-2.88,0,0-.34-1.37,1.45-3.01,0,0,1.27-1.09,1.69-3.48"/>
      <path class="st0" d="M181.6,54.72s0,1.97,1.72,3.24c0,0,2.12,1.69,1.64,3.83-.42,1.86-2.56,2.3-3.35,2.3,0,0-2.77.05-3.14-2.88,0,0-.34-1.37,1.45-3.01,0,0,1.27-1.09,1.69-3.48"/>
      <path class="st0" d="M181.6,65.55s0,1.97,1.72,3.24c0,0,2.12,1.69,1.64,3.83-.42,1.86-2.56,2.3-3.35,2.3,0,0-2.77.05-3.14-2.88,0,0-.34-1.37,1.45-3.01,0,0,1.27-1.09,1.69-3.48"/>
      <path class="st0" d="M181.6,76.39s0,1.97,1.72,3.24c0,0,2.12,1.69,1.64,3.83-.42,1.86-2.56,2.3-3.35,2.3,0,0-2.77.05-3.14-2.88,0,0-.34-1.37,1.45-3.01,0,0,1.27-1.09,1.69-3.48"/>
      <path class="st0" d="M181.6,87.22s0,1.97,1.72,3.24c0,0,2.12,1.69,1.64,3.83-.42,1.86-2.56,2.3-3.35,2.3,0,0-2.77.05-3.14-2.88,0,0-.34-1.37,1.45-3.01,0,0,1.27-1.09,1.69-3.48"/>
      <path class="st0" d="M181.6,98.05s0,1.97,1.72,3.24c0,0,2.12,1.69,1.64,3.83-.42,1.86-2.56,2.3-3.35,2.3,0,0-2.77.05-3.14-2.88,0,0-.34-1.37,1.45-3.01,0,0,1.27-1.09,1.69-3.48"/>
      <path class="st0" d="M181.6,108.88s0,1.97,1.72,3.24c0,0,2.12,1.69,1.64,3.83-.42,1.86-2.56,2.3-3.35,2.3,0,0-2.77.05-3.14-2.88,0,0-.34-1.37,1.45-3.01,0,0,1.27-1.09,1.69-3.48"/>
      <path class="st0" d="M181.6,119.71s0,1.97,1.72,3.24c0,0,2.12,1.69,1.64,3.83-.42,1.86-2.56,2.3-3.35,2.3,0,0-2.77.05-3.14-2.88,0,0-.34-1.37,1.45-3.01,0,0,1.27-1.09,1.69-3.48"/>
      <path class="st0" d="M181.6,130.54s0,1.97,1.72,3.24c0,0,2.12,1.69,1.64,3.83-.42,1.86-2.56,2.3-3.35,2.3,0,0-2.77.05-3.14-2.88,0,0-.34-1.37,1.45-3.01,0,0,1.27-1.09,1.69-3.48"/>
      <path class="st0" d="M181.6,141.37s0,1.97,1.72,3.24c0,0,2.12,1.69,1.64,3.83-.42,1.86-2.56,2.3-3.35,2.3,0,0-2.77.05-3.14-2.88,0,0-.34-1.37,1.45-3.01,0,0,1.27-1.09,1.69-3.48"/>
    </g>
    <g>
      <path class="st0" d="M188.19,5.17s0,1.97,1.72,3.24c0,0,2.12,1.69,1.64,3.83-.42,1.86-2.56,2.3-3.35,2.3,0,0-2.77.05-3.14-2.88,0,0-.34-1.37,1.45-3.01,0,0,1.27-1.09,1.69-3.48"/>
      <path class="st0" d="M188.19,16s0,1.97,1.72,3.24c0,0,2.12,1.69,1.64,3.83-.42,1.86-2.56,2.3-3.35,2.3,0,0-2.77.05-3.14-2.88,0,0-.34-1.37,1.45-3.01,0,0,1.27-1.09,1.69-3.48"/>
      <path class="st0" d="M188.19,26.83s0,1.97,1.72,3.24c0,0,2.12,1.69,1.64,3.83-.42,1.86-2.56,2.3-3.35,2.3,0,0-2.77.05-3.14-2.88,0,0-.34-1.37,1.45-3.01,0,0,1.27-1.09,1.69-3.48"/>
      <path class="st0" d="M188.19,37.66s0,1.97,1.72,3.24c0,0,2.12,1.69,1.64,3.83-.42,1.86-2.56,2.3-3.35,2.3,0,0-2.77.05-3.14-2.88,0,0-.34-1.37,1.45-3.01,0,0,1.27-1.09,1.69-3.48"/>
      <path class="st0" d="M188.19,48.49s0,1.97,1.72,3.24c0,0,2.12,1.69,1.64,3.83-.42,1.86-2.56,2.3-3.35,2.3,0,0-2.77.05-3.14-2.88,0,0-.34-1.37,1.45-3.01,0,0,1.27-1.09,1.69-3.48"/>
      <path class="st0" d="M188.19,59.32s0,1.97,1.72,3.24c0,0,2.12,1.69,1.64,3.83-.42,1.86-2.56,2.3-3.35,2.3,0,0-2.77.05-3.14-2.88,0,0-.34-1.37,1.45-3.01,0,0,1.27-1.09,1.69-3.48"/>
      <path class="st0" d="M188.19,70.15s0,1.97,1.72,3.24c0,0,2.12,1.69,1.64,3.83-.42,1.86-2.56,2.3-3.35,2.3,0,0-2.77.05-3.14-2.88,0,0-.34-1.37,1.45-3.01,0,0,1.27-1.09,1.69-3.48"/>
      <path class="st0" d="M188.19,80.99s0,1.97,1.72,3.24c0,0,2.12,1.69,1.64,3.83-.42,1.86-2.56,2.3-3.35,2.3,0,0-2.77.05-3.14-2.88,0,0-.34-1.37,1.45-3.01,0,0,1.27-1.09,1.69-3.48"/>
      <path class="st0" d="M188.19,91.82s0,1.97,1.72,3.24c0,0,2.12,1.69,1.64,3.83-.42,1.86-2.56,2.3-3.35,2.3,0,0-2.77.05-3.14-2.88,0,0-.34-1.37,1.45-3.01,0,0,1.27-1.09,1.69-3.48"/>
      <path class="st0" d="M188.19,102.65s0,1.97,1.72,3.24c0,0,2.12,1.69,1.64,3.83-.42,1.86-2.56,2.3-3.35,2.3,0,0-2.77.05-3.14-2.88,0,0-.34-1.37,1.45-3.01,0,0,1.27-1.09,1.69-3.48"/>
      <path class="st0" d="M188.19,113.48s0,1.97,1.72,3.24c0,0,2.12,1.69,1.64,3.83-.42,1.86-2.56,2.3-3.35,2.3,0,0-2.77.05-3.14-2.88,0,0-.34-1.37,1.45-3.01,0,0,1.27-1.09,1.69-3.48"/>
      <path class="st0" d="M188.19,124.31s0,1.97,1.72,3.24c0,0,2.12,1.69,1.64,3.83-.42,1.86-2.56,2.3-3.35,2.3,0,0-2.77.05-3.14-2.88,0,0-.34-1.37,1.45-3.01,0,0,1.27-1.09,1.69-3.48"/>
      <path class="st0" d="M188.19,135.14s0,1.97,1.72,3.24c0,0,2.12,1.69,1.64,3.83-.42,1.86-2.56,2.3-3.35,2.3,0,0-2.77.05-3.14-2.88,0,0-.34-1.37,1.45-3.01,0,0,1.27-1.09,1.69-3.48"/>
      <path class="st0" d="M188.19,145.97s0,1.97,1.72,3.24c0,0,2.12,1.69,1.64,3.83-.42,1.86-2.56,2.3-3.35,2.3,0,0-2.77.05-3.14-2.88,0,0-.34-1.37,1.45-3.01,0,0,1.27-1.09,1.69-3.48"/>
    </g>
  </g>
  <g class="st1">
    <g>
      <path class="st0" d="M195.94.57s0,1.97,1.72,3.24c0,0,2.12,1.69,1.64,3.83-.42,1.86-2.56,2.3-3.35,2.3,0,0-2.77.05-3.14-2.88,0,0-.34-1.37,1.45-3.01,0,0,1.27-1.09,1.69-3.48"/>
      <path class="st0" d="M195.94,11.4s0,1.97,1.72,3.24c0,0,2.12,1.69,1.64,3.83-.42,1.86-2.56,2.3-3.35,2.3,0,0-2.77.05-3.14-2.88,0,0-.34-1.37,1.45-3.01,0,0,1.27-1.09,1.69-3.48"/>
      <path class="st0" d="M195.94,22.23s0,1.97,1.72,3.24c0,0,2.12,1.69,1.64,3.83-.42,1.86-2.56,2.3-3.35,2.3,0,0-2.77.05-3.14-2.88,0,0-.34-1.37,1.45-3.01,0,0,1.27-1.09,1.69-3.48"/>
      <path class="st0" d="M195.94,33.06s0,1.97,1.72,3.24c0,0,2.12,1.69,1.64,3.83-.42,1.86-2.56,2.3-3.35,2.3,0,0-2.77.05-3.14-2.88,0,0-.34-1.37,1.45-3.01,0,0,1.27-1.09,1.69-3.48"/>
      <path class="st0" d="M195.94,43.89s0,1.97,1.72,3.24c0,0,2.12,1.69,1.64,3.83-.42,1.86-2.56,2.3-3.35,2.3,0,0-2.77.05-3.14-2.88,0,0-.34-1.37,1.45-3.01,0,0,1.27-1.09,1.69-3.48"/>
      <path class="st0" d="M195.94,54.72s0,1.97,1.72,3.24c0,0,2.12,1.69,1.64,3.83-.42,1.86-2.56,2.3-3.35,2.3,0,0-2.77.05-3.14-2.88,0,0-.34-1.37,1.45-3.01,0,0,1.27-1.09,1.69-3.48"/>
      <path class="st0" d="M195.94,65.55s0,1.97,1.72,3.24c0,0,2.12,1.69,1.64,3.83-.42,1.86-2.56,2.3-3.35,2.3,0,0-2.77.05-3.14-2.88,0,0-.34-1.37,1.45-3.01,0,0,1.27-1.09,1.69-3.48"/>
      <path class="st0" d="M195.94,76.39s0,1.97,1.72,3.24c0,0,2.12,1.69,1.64,3.83-.42,1.86-2.56,2.3-3.35,2.3,0,0-2.77.05-3.14-2.88,0,0-.34-1.37,1.45-3.01,0,0,1.27-1.09,1.69-3.48"/>
      <path class="st0" d="M195.94,87.22s0,1.97,1.72,3.24c0,0,2.12,1.69,1.64,3.83-.42,1.86-2.56,2.3-3.35,2.3,0,0-2.77.05-3.14-2.88,0,0-.34-1.37,1.45-3.01,0,0,1.27-1.09,1.69-3.48"/>
      <path class="st0" d="M195.94,98.05s0,1.97,1.72,3.24c0,0,2.12,1.69,1.64,3.83-.42,1.86-2.56,2.3-3.35,2.3,0,0-2.77.05-3.14-2.88,0,0-.34-1.37,1.45-3.01,0,0,1.27-1.09,1.69-3.48"/>
      <path class="st0" d="M195.94,108.88s0,1.97,1.72,3.24c0,0,2.12,1.69,1.64,3.83-.42,1.86-2.56,2.3-3.35,2.3,0,0-2.77.05-3.14-2.88,0,0-.34-1.37,1.45-3.01,0,0,1.27-1.09,1.69-3.48"/>
      <path class="st0" d="M195.94,119.71s0,1.97,1.72,3.24c0,0,2.12,1.69,1.64,3.83-.42,1.86-2.56,2.3-3.35,2.3,0,0-2.77.05-3.14-2.88,0,0-.34-1.37,1.45-3.01,0,0,1.27-1.09,1.69-3.48"/>
      <path class="st0" d="M195.94,130.54s0,1.97,1.72,3.24c0,0,2.12,1.69,1.64,3.83-.42,1.86-2.56,2.3-3.35,2.3,0,0-2.77.05-3.14-2.88,0,0-.34-1.37,1.45-3.01,0,0,1.27-1.09,1.69-3.48"/>
      <path class="st0" d="M195.94,141.37s0,1.97,1.72,3.24c0,0,2.12,1.69,1.64,3.83-.42,1.86-2.56,2.3-3.35,2.3,0,0-2.77.05-3.14-2.88,0,0-.34-1.37,1.45-3.01,0,0,1.27-1.09,1.69-3.48"/>
    </g>
    <g>
      <path class="st0" d="M202.54,5.17s0,1.97,1.72,3.24c0,0,2.12,1.69,1.64,3.83-.42,1.86-2.56,2.3-3.35,2.3,0,0-2.77.05-3.14-2.88,0,0-.34-1.37,1.45-3.01,0,0,1.27-1.09,1.69-3.48"/>
      <path class="st0" d="M202.54,16s0,1.97,1.72,3.24c0,0,2.12,1.69,1.64,3.83-.42,1.86-2.56,2.3-3.35,2.3,0,0-2.77.05-3.14-2.88,0,0-.34-1.37,1.45-3.01,0,0,1.27-1.09,1.69-3.48"/>
      <path class="st0" d="M202.54,26.83s0,1.97,1.72,3.24c0,0,2.12,1.69,1.64,3.83-.42,1.86-2.56,2.3-3.35,2.3,0,0-2.77.05-3.14-2.88,0,0-.34-1.37,1.45-3.01,0,0,1.27-1.09,1.69-3.48"/>
      <path class="st0" d="M202.54,37.66s0,1.97,1.72,3.24c0,0,2.12,1.69,1.64,3.83-.42,1.86-2.56,2.3-3.35,2.3,0,0-2.77.05-3.14-2.88,0,0-.34-1.37,1.45-3.01,0,0,1.27-1.09,1.69-3.48"/>
      <path class="st0" d="M202.54,48.49s0,1.97,1.72,3.24c0,0,2.12,1.69,1.64,3.83-.42,1.86-2.56,2.3-3.35,2.3,0,0-2.77.05-3.14-2.88,0,0-.34-1.37,1.45-3.01,0,0,1.27-1.09,1.69-3.48"/>
      <path class="st0" d="M202.54,59.32s0,1.97,1.72,3.24c0,0,2.12,1.69,1.64,3.83-.42,1.86-2.56,2.3-3.35,2.3,0,0-2.77.05-3.14-2.88,0,0-.34-1.37,1.45-3.01,0,0,1.27-1.09,1.69-3.48"/>
      <path class="st0" d="M202.54,70.15s0,1.97,1.72,3.24c0,0,2.12,1.69,1.64,3.83-.42,1.86-2.56,2.3-3.35,2.3,0,0-2.77.05-3.14-2.88,0,0-.34-1.37,1.45-3.01,0,0,1.27-1.09,1.69-3.48"/>
      <path class="st0" d="M202.54,80.99s0,1.97,1.72,3.24c0,0,2.12,1.69,1.64,3.83-.42,1.86-2.56,2.3-3.35,2.3,0,0-2.77.05-3.14-2.88,0,0-.34-1.37,1.45-3.01,0,0,1.27-1.09,1.69-3.48"/>
      <path class="st0" d="M202.54,91.82s0,1.97,1.72,3.24c0,0,2.12,1.69,1.64,3.83-.42,1.86-2.56,2.3-3.35,2.3,0,0-2.77.05-3.14-2.88,0,0-.34-1.37,1.45-3.01,0,0,1.27-1.09,1.69-3.48"/>
      <path class="st0" d="M202.54,102.65s0,1.97,1.72,3.24c0,0,2.12,1.69,1.64,3.83-.42,1.86-2.56,2.3-3.35,2.3,0,0-2.77.05-3.14-2.88,0,0-.34-1.37,1.45-3.01,0,0,1.27-1.09,1.69-3.48"/>
      <path class="st0" d="M202.54,113.48s0,1.97,1.72,3.24c0,0,2.12,1.69,1.64,3.83-.42,1.86-2.56,2.3-3.35,2.3,0,0-2.77.05-3.14-2.88,0,0-.34-1.37,1.45-3.01,0,0,1.27-1.09,1.69-3.48"/>
      <path class="st0" d="M202.54,124.31s0,1.97,1.72,3.24c0,0,2.12,1.69,1.64,3.83-.42,1.86-2.56,2.3-3.35,2.3,0,0-2.77.05-3.14-2.88,0,0-.34-1.37,1.45-3.01,0,0,1.27-1.09,1.69-3.48"/>
      <path class="st0" d="M202.54,135.14s0,1.97,1.72,3.24c0,0,2.12,1.69,1.64,3.83-.42,1.86-2.56,2.3-3.35,2.3,0,0-2.77.05-3.14-2.88,0,0-.34-1.37,1.45-3.01,0,0,1.27-1.09,1.69-3.48"/>
      <path class="st0" d="M202.54,145.97s0,1.97,1.72,3.24c0,0,2.12,1.69,1.64,3.83-.42,1.86-2.56,2.3-3.35,2.3,0,0-2.77.05-3.14-2.88,0,0-.34-1.37,1.45-3.01,0,0,1.27-1.09,1.69-3.48"/>
    </g>
  </g>
  <g class="st1">
    <g>
      <path class="st0" d="M210.29.57s0,1.97,1.72,3.24c0,0,2.12,1.69,1.64,3.83-.42,1.86-2.56,2.3-3.35,2.3,0,0-2.77.05-3.14-2.88,0,0-.34-1.37,1.45-3.01,0,0,1.27-1.09,1.69-3.48"/>
      <path class="st0" d="M210.29,11.4s0,1.97,1.72,3.24c0,0,2.12,1.69,1.64,3.83-.42,1.86-2.56,2.3-3.35,2.3,0,0-2.77.05-3.14-2.88,0,0-.34-1.37,1.45-3.01,0,0,1.27-1.09,1.69-3.48"/>
      <path class="st0" d="M210.29,22.23s0,1.97,1.72,3.24c0,0,2.12,1.69,1.64,3.83-.42,1.86-2.56,2.3-3.35,2.3,0,0-2.77.05-3.14-2.88,0,0-.34-1.37,1.45-3.01,0,0,1.27-1.09,1.69-3.48"/>
      <path class="st0" d="M210.29,33.06s0,1.97,1.72,3.24c0,0,2.12,1.69,1.64,3.83-.42,1.86-2.56,2.3-3.35,2.3,0,0-2.77.05-3.14-2.88,0,0-.34-1.37,1.45-3.01,0,0,1.27-1.09,1.69-3.48"/>
      <path class="st0" d="M210.29,43.89s0,1.97,1.72,3.24c0,0,2.12,1.69,1.64,3.83-.42,1.86-2.56,2.3-3.35,2.3,0,0-2.77.05-3.14-2.88,0,0-.34-1.37,1.45-3.01,0,0,1.27-1.09,1.69-3.48"/>
      <path class="st0" d="M210.29,54.72s0,1.97,1.72,3.24c0,0,2.12,1.69,1.64,3.83-.42,1.86-2.56,2.3-3.35,2.3,0,0-2.77.05-3.14-2.88,0,0-.34-1.37,1.45-3.01,0,0,1.27-1.09,1.69-3.48"/>
      <path class="st0" d="M210.29,65.55s0,1.97,1.72,3.24c0,0,2.12,1.69,1.64,3.83-.42,1.86-2.56,2.3-3.35,2.3,0,0-2.77.05-3.14-2.88,0,0-.34-1.37,1.45-3.01,0,0,1.27-1.09,1.69-3.48"/>
      <path class="st0" d="M210.29,76.39s0,1.97,1.72,3.24c0,0,2.12,1.69,1.64,3.83-.42,1.86-2.56,2.3-3.35,2.3,0,0-2.77.05-3.14-2.88,0,0-.34-1.37,1.45-3.01,0,0,1.27-1.09,1.69-3.48"/>
      <path class="st0" d="M210.29,87.22s0,1.97,1.72,3.24c0,0,2.12,1.69,1.64,3.83-.42,1.86-2.56,2.3-3.35,2.3,0,0-2.77.05-3.14-2.88,0,0-.34-1.37,1.45-3.01,0,0,1.27-1.09,1.69-3.48"/>
      <path class="st0" d="M210.29,98.05s0,1.97,1.72,3.24c0,0,2.12,1.69,1.64,3.83-.42,1.86-2.56,2.3-3.35,2.3,0,0-2.77.05-3.14-2.88,0,0-.34-1.37,1.45-3.01,0,0,1.27-1.09,1.69-3.48"/>
      <path class="st0" d="M210.29,108.88s0,1.97,1.72,3.24c0,0,2.12,1.69,1.64,3.83-.42,1.86-2.56,2.3-3.35,2.3,0,0-2.77.05-3.14-2.88,0,0-.34-1.37,1.45-3.01,0,0,1.27-1.09,1.69-3.48"/>
      <path class="st0" d="M210.29,119.71s0,1.97,1.72,3.24c0,0,2.12,1.69,1.64,3.83-.42,1.86-2.56,2.3-3.35,2.3,0,0-2.77.05-3.14-2.88,0,0-.34-1.37,1.45-3.01,0,0,1.27-1.09,1.69-3.48"/>
      <path class="st0" d="M210.29,130.54s0,1.97,1.72,3.24c0,0,2.12,1.69,1.64,3.83-.42,1.86-2.56,2.3-3.35,2.3,0,0-2.77.05-3.14-2.88,0,0-.34-1.37,1.45-3.01,0,0,1.27-1.09,1.69-3.48"/>
      <path class="st0" d="M210.29,141.37s0,1.97,1.72,3.24c0,0,2.12,1.69,1.64,3.83-.42,1.86-2.56,2.3-3.35,2.3,0,0-2.77.05-3.14-2.88,0,0-.34-1.37,1.45-3.01,0,0,1.27-1.09,1.69-3.48"/>
    </g>
    <g>
      <path class="st0" d="M216.88,5.17s0,1.97,1.72,3.24c0,0,2.12,1.69,1.64,3.83-.42,1.86-2.56,2.3-3.35,2.3,0,0-2.77.05-3.14-2.88,0,0-.34-1.37,1.45-3.01,0,0,1.27-1.09,1.69-3.48"/>
      <path class="st0" d="M216.88,16s0,1.97,1.72,3.24c0,0,2.12,1.69,1.64,3.83-.42,1.86-2.56,2.3-3.35,2.3,0,0-2.77.05-3.14-2.88,0,0-.34-1.37,1.45-3.01,0,0,1.27-1.09,1.69-3.48"/>
      <path class="st0" d="M216.88,26.83s0,1.97,1.72,3.24c0,0,2.12,1.69,1.64,3.83-.42,1.86-2.56,2.3-3.35,2.3,0,0-2.77.05-3.14-2.88,0,0-.34-1.37,1.45-3.01,0,0,1.27-1.09,1.69-3.48"/>
      <path class="st0" d="M216.88,37.66s0,1.97,1.72,3.24c0,0,2.12,1.69,1.64,3.83-.42,1.86-2.56,2.3-3.35,2.3,0,0-2.77.05-3.14-2.88,0,0-.34-1.37,1.45-3.01,0,0,1.27-1.09,1.69-3.48"/>
      <path class="st0" d="M216.88,48.49s0,1.97,1.72,3.24c0,0,2.12,1.69,1.64,3.83-.42,1.86-2.56,2.3-3.35,2.3,0,0-2.77.05-3.14-2.88,0,0-.34-1.37,1.45-3.01,0,0,1.27-1.09,1.69-3.48"/>
      <path class="st0" d="M216.88,59.32s0,1.97,1.72,3.24c0,0,2.12,1.69,1.64,3.83-.42,1.86-2.56,2.3-3.35,2.3,0,0-2.77.05-3.14-2.88,0,0-.34-1.37,1.45-3.01,0,0,1.27-1.09,1.69-3.48"/>
      <path class="st0" d="M216.88,70.15s0,1.97,1.72,3.24c0,0,2.12,1.69,1.64,3.83-.42,1.86-2.56,2.3-3.35,2.3,0,0-2.77.05-3.14-2.88,0,0-.34-1.37,1.45-3.01,0,0,1.27-1.09,1.69-3.48"/>
      <path class="st0" d="M216.88,80.99s0,1.97,1.72,3.24c0,0,2.12,1.69,1.64,3.83-.42,1.86-2.56,2.3-3.35,2.3,0,0-2.77.05-3.14-2.88,0,0-.34-1.37,1.45-3.01,0,0,1.27-1.09,1.69-3.48"/>
      <path class="st0" d="M216.88,91.82s0,1.97,1.72,3.24c0,0,2.12,1.69,1.64,3.83-.42,1.86-2.56,2.3-3.35,2.3,0,0-2.77.05-3.14-2.88,0,0-.34-1.37,1.45-3.01,0,0,1.27-1.09,1.69-3.48"/>
      <path class="st0" d="M216.88,102.65s0,1.97,1.72,3.24c0,0,2.12,1.69,1.64,3.83-.42,1.86-2.56,2.3-3.35,2.3,0,0-2.77.05-3.14-2.88,0,0-.34-1.37,1.45-3.01,0,0,1.27-1.09,1.69-3.48"/>
      <path class="st0" d="M216.88,113.48s0,1.97,1.72,3.24c0,0,2.12,1.69,1.64,3.83-.42,1.86-2.56,2.3-3.35,2.3,0,0-2.77.05-3.14-2.88,0,0-.34-1.37,1.45-3.01,0,0,1.27-1.09,1.69-3.48"/>
      <path class="st0" d="M216.88,124.31s0,1.97,1.72,3.24c0,0,2.12,1.69,1.64,3.83-.42,1.86-2.56,2.3-3.35,2.3,0,0-2.77.05-3.14-2.88,0,0-.34-1.37,1.45-3.01,0,0,1.27-1.09,1.69-3.48"/>
      <path class="st0" d="M216.88,135.14s0,1.97,1.72,3.24c0,0,2.12,1.69,1.64,3.83-.42,1.86-2.56,2.3-3.35,2.3,0,0-2.77.05-3.14-2.88,0,0-.34-1.37,1.45-3.01,0,0,1.27-1.09,1.69-3.48"/>
      <path class="st0" d="M216.88,145.97s0,1.97,1.72,3.24c0,0,2.12,1.69,1.64,3.83-.42,1.86-2.56,2.3-3.35,2.3,0,0-2.77.05-3.14-2.88,0,0-.34-1.37,1.45-3.01,0,0,1.27-1.09,1.69-3.48"/>
    </g>
  </g>
  <g class="st1">
    <g>
      <path class="st0" d="M224.63.57s0,1.97,1.72,3.24c0,0,2.12,1.69,1.64,3.83-.42,1.86-2.56,2.3-3.35,2.3,0,0-2.77.05-3.14-2.88,0,0-.34-1.37,1.45-3.01,0,0,1.27-1.09,1.69-3.48"/>
      <path class="st0" d="M224.63,11.4s0,1.97,1.72,3.24c0,0,2.12,1.69,1.64,3.83-.42,1.86-2.56,2.3-3.35,2.3,0,0-2.77.05-3.14-2.88,0,0-.34-1.37,1.45-3.01,0,0,1.27-1.09,1.69-3.48"/>
      <path class="st0" d="M224.63,22.23s0,1.97,1.72,3.24c0,0,2.12,1.69,1.64,3.83-.42,1.86-2.56,2.3-3.35,2.3,0,0-2.77.05-3.14-2.88,0,0-.34-1.37,1.45-3.01,0,0,1.27-1.09,1.69-3.48"/>
      <path class="st0" d="M224.63,33.06s0,1.97,1.72,3.24c0,0,2.12,1.69,1.64,3.83-.42,1.86-2.56,2.3-3.35,2.3,0,0-2.77.05-3.14-2.88,0,0-.34-1.37,1.45-3.01,0,0,1.27-1.09,1.69-3.48"/>
      <path class="st0" d="M224.63,43.89s0,1.97,1.72,3.24c0,0,2.12,1.69,1.64,3.83-.42,1.86-2.56,2.3-3.35,2.3,0,0-2.77.05-3.14-2.88,0,0-.34-1.37,1.45-3.01,0,0,1.27-1.09,1.69-3.48"/>
      <path class="st0" d="M224.63,54.72s0,1.97,1.72,3.24c0,0,2.12,1.69,1.64,3.83-.42,1.86-2.56,2.3-3.35,2.3,0,0-2.77.05-3.14-2.88,0,0-.34-1.37,1.45-3.01,0,0,1.27-1.09,1.69-3.48"/>
      <path class="st0" d="M224.63,65.55s0,1.97,1.72,3.24c0,0,2.12,1.69,1.64,3.83-.42,1.86-2.56,2.3-3.35,2.3,0,0-2.77.05-3.14-2.88,0,0-.34-1.37,1.45-3.01,0,0,1.27-1.09,1.69-3.48"/>
      <path class="st0" d="M224.63,76.39s0,1.97,1.72,3.24c0,0,2.12,1.69,1.64,3.83-.42,1.86-2.56,2.3-3.35,2.3,0,0-2.77.05-3.14-2.88,0,0-.34-1.37,1.45-3.01,0,0,1.27-1.09,1.69-3.48"/>
      <path class="st0" d="M224.63,87.22s0,1.97,1.72,3.24c0,0,2.12,1.69,1.64,3.83-.42,1.86-2.56,2.3-3.35,2.3,0,0-2.77.05-3.14-2.88,0,0-.34-1.37,1.45-3.01,0,0,1.27-1.09,1.69-3.48"/>
      <path class="st0" d="M224.63,98.05s0,1.97,1.72,3.24c0,0,2.12,1.69,1.64,3.83-.42,1.86-2.56,2.3-3.35,2.3,0,0-2.77.05-3.14-2.88,0,0-.34-1.37,1.45-3.01,0,0,1.27-1.09,1.69-3.48"/>
      <path class="st0" d="M224.63,108.88s0,1.97,1.72,3.24c0,0,2.12,1.69,1.64,3.83-.42,1.86-2.56,2.3-3.35,2.3,0,0-2.77.05-3.14-2.88,0,0-.34-1.37,1.45-3.01,0,0,1.27-1.09,1.69-3.48"/>
      <path class="st0" d="M224.63,119.71s0,1.97,1.72,3.24c0,0,2.12,1.69,1.64,3.83-.42,1.86-2.56,2.3-3.35,2.3,0,0-2.77.05-3.14-2.88,0,0-.34-1.37,1.45-3.01,0,0,1.27-1.09,1.69-3.48"/>
      <path class="st0" d="M224.63,130.54s0,1.97,1.72,3.24c0,0,2.12,1.69,1.64,3.83-.42,1.86-2.56,2.3-3.35,2.3,0,0-2.77.05-3.14-2.88,0,0-.34-1.37,1.45-3.01,0,0,1.27-1.09,1.69-3.48"/>
      <path class="st0" d="M224.63,141.37s0,1.97,1.72,3.24c0,0,2.12,1.69,1.64,3.83-.42,1.86-2.56,2.3-3.35,2.3,0,0-2.77.05-3.14-2.88,0,0-.34-1.37,1.45-3.01,0,0,1.27-1.09,1.69-3.48"/>
    </g>
    <g>
      <path class="st0" d="M231.23,5.17s0,1.97,1.72,3.24c0,0,2.12,1.69,1.64,3.83-.42,1.86-2.56,2.3-3.35,2.3,0,0-2.77.05-3.14-2.88,0,0-.34-1.37,1.45-3.01,0,0,1.27-1.09,1.69-3.48"/>
      <path class="st0" d="M231.23,16s0,1.97,1.72,3.24c0,0,2.12,1.69,1.64,3.83-.42,1.86-2.56,2.3-3.35,2.3,0,0-2.77.05-3.14-2.88,0,0-.34-1.37,1.45-3.01,0,0,1.27-1.09,1.69-3.48"/>
      <path class="st0" d="M231.23,26.83s0,1.97,1.72,3.24c0,0,2.12,1.69,1.64,3.83-.42,1.86-2.56,2.3-3.35,2.3,0,0-2.77.05-3.14-2.88,0,0-.34-1.37,1.45-3.01,0,0,1.27-1.09,1.69-3.48"/>
      <path class="st0" d="M231.23,37.66s0,1.97,1.72,3.24c0,0,2.12,1.69,1.64,3.83-.42,1.86-2.56,2.3-3.35,2.3,0,0-2.77.05-3.14-2.88,0,0-.34-1.37,1.45-3.01,0,0,1.27-1.09,1.69-3.48"/>
      <path class="st0" d="M231.23,48.49s0,1.97,1.72,3.24c0,0,2.12,1.69,1.64,3.83-.42,1.86-2.56,2.3-3.35,2.3,0,0-2.77.05-3.14-2.88,0,0-.34-1.37,1.45-3.01,0,0,1.27-1.09,1.69-3.48"/>
      <path class="st0" d="M231.23,59.32s0,1.97,1.72,3.24c0,0,2.12,1.69,1.64,3.83-.42,1.86-2.56,2.3-3.35,2.3,0,0-2.77.05-3.14-2.88,0,0-.34-1.37,1.45-3.01,0,0,1.27-1.09,1.69-3.48"/>
      <path class="st0" d="M231.23,70.15s0,1.97,1.72,3.24c0,0,2.12,1.69,1.64,3.83-.42,1.86-2.56,2.3-3.35,2.3,0,0-2.77.05-3.14-2.88,0,0-.34-1.37,1.45-3.01,0,0,1.27-1.09,1.69-3.48"/>
      <path class="st0" d="M231.23,80.99s0,1.97,1.72,3.24c0,0,2.12,1.69,1.64,3.83-.42,1.86-2.56,2.3-3.35,2.3,0,0-2.77.05-3.14-2.88,0,0-.34-1.37,1.45-3.01,0,0,1.27-1.09,1.69-3.48"/>
      <path class="st0" d="M231.23,91.82s0,1.97,1.72,3.24c0,0,2.12,1.69,1.64,3.83-.42,1.86-2.56,2.3-3.35,2.3,0,0-2.77.05-3.14-2.88,0,0-.34-1.37,1.45-3.01,0,0,1.27-1.09,1.69-3.48"/>
      <path class="st0" d="M231.23,102.65s0,1.97,1.72,3.24c0,0,2.12,1.69,1.64,3.83-.42,1.86-2.56,2.3-3.35,2.3,0,0-2.77.05-3.14-2.88,0,0-.34-1.37,1.45-3.01,0,0,1.27-1.09,1.69-3.48"/>
      <path class="st0" d="M231.23,113.48s0,1.97,1.72,3.24c0,0,2.12,1.69,1.64,3.83-.42,1.86-2.56,2.3-3.35,2.3,0,0-2.77.05-3.14-2.88,0,0-.34-1.37,1.45-3.01,0,0,1.27-1.09,1.69-3.48"/>
      <path class="st0" d="M231.23,124.31s0,1.97,1.72,3.24c0,0,2.12,1.69,1.64,3.83-.42,1.86-2.56,2.3-3.35,2.3,0,0-2.77.05-3.14-2.88,0,0-.34-1.37,1.45-3.01,0,0,1.27-1.09,1.69-3.48"/>
      <path class="st0" d="M231.23,135.14s0,1.97,1.72,3.24c0,0,2.12,1.69,1.64,3.83-.42,1.86-2.56,2.3-3.35,2.3,0,0-2.77.05-3.14-2.88,0,0-.34-1.37,1.45-3.01,0,0,1.27-1.09,1.69-3.48"/>
      <path class="st0" d="M231.23,145.97s0,1.97,1.72,3.24c0,0,2.12,1.69,1.64,3.83-.42,1.86-2.56,2.3-3.35,2.3,0,0-2.77.05-3.14-2.88,0,0-.34-1.37,1.45-3.01,0,0,1.27-1.09,1.69-3.48"/>
    </g>
  </g>
  <g class="st1">
    <g>
      <path class="st0" d="M238.98.57s0,1.97,1.72,3.24c0,0,2.12,1.69,1.64,3.83-.42,1.86-2.56,2.3-3.35,2.3,0,0-2.77.05-3.14-2.88,0,0-.34-1.37,1.45-3.01,0,0,1.27-1.09,1.69-3.48"/>
      <path class="st0" d="M238.98,11.4s0,1.97,1.72,3.24c0,0,2.12,1.69,1.64,3.83-.42,1.86-2.56,2.3-3.35,2.3,0,0-2.77.05-3.14-2.88,0,0-.34-1.37,1.45-3.01,0,0,1.27-1.09,1.69-3.48"/>
      <path class="st0" d="M238.98,22.23s0,1.97,1.72,3.24c0,0,2.12,1.69,1.64,3.83-.42,1.86-2.56,2.3-3.35,2.3,0,0-2.77.05-3.14-2.88,0,0-.34-1.37,1.45-3.01,0,0,1.27-1.09,1.69-3.48"/>
      <path class="st0" d="M238.98,33.06s0,1.97,1.72,3.24c0,0,2.12,1.69,1.64,3.83-.42,1.86-2.56,2.3-3.35,2.3,0,0-2.77.05-3.14-2.88,0,0-.34-1.37,1.45-3.01,0,0,1.27-1.09,1.69-3.48"/>
      <path class="st0" d="M238.98,43.89s0,1.97,1.72,3.24c0,0,2.12,1.69,1.64,3.83-.42,1.86-2.56,2.3-3.35,2.3,0,0-2.77.05-3.14-2.88,0,0-.34-1.37,1.45-3.01,0,0,1.27-1.09,1.69-3.48"/>
      <path class="st0" d="M238.98,54.72s0,1.97,1.72,3.24c0,0,2.12,1.69,1.64,3.83-.42,1.86-2.56,2.3-3.35,2.3,0,0-2.77.05-3.14-2.88,0,0-.34-1.37,1.45-3.01,0,0,1.27-1.09,1.69-3.48"/>
      <path class="st0" d="M238.98,65.55s0,1.97,1.72,3.24c0,0,2.12,1.69,1.64,3.83-.42,1.86-2.56,2.3-3.35,2.3,0,0-2.77.05-3.14-2.88,0,0-.34-1.37,1.45-3.01,0,0,1.27-1.09,1.69-3.48"/>
      <path class="st0" d="M238.98,76.39s0,1.97,1.72,3.24c0,0,2.12,1.69,1.64,3.83-.42,1.86-2.56,2.3-3.35,2.3,0,0-2.77.05-3.14-2.88,0,0-.34-1.37,1.45-3.01,0,0,1.27-1.09,1.69-3.48"/>
      <path class="st0" d="M238.98,87.22s0,1.97,1.72,3.24c0,0,2.12,1.69,1.64,3.83-.42,1.86-2.56,2.3-3.35,2.3,0,0-2.77.05-3.14-2.88,0,0-.34-1.37,1.45-3.01,0,0,1.27-1.09,1.69-3.48"/>
      <path class="st0" d="M238.98,98.05s0,1.97,1.72,3.24c0,0,2.12,1.69,1.64,3.83-.42,1.86-2.56,2.3-3.35,2.3,0,0-2.77.05-3.14-2.88,0,0-.34-1.37,1.45-3.01,0,0,1.27-1.09,1.69-3.48"/>
      <path class="st0" d="M238.98,108.88s0,1.97,1.72,3.24c0,0,2.12,1.69,1.64,3.83-.42,1.86-2.56,2.3-3.35,2.3,0,0-2.77.05-3.14-2.88,0,0-.34-1.37,1.45-3.01,0,0,1.27-1.09,1.69-3.48"/>
      <path class="st0" d="M238.98,119.71s0,1.97,1.72,3.24c0,0,2.12,1.69,1.64,3.83-.42,1.86-2.56,2.3-3.35,2.3,0,0-2.77.05-3.14-2.88,0,0-.34-1.37,1.45-3.01,0,0,1.27-1.09,1.69-3.48"/>
      <path class="st0" d="M238.98,130.54s0,1.97,1.72,3.24c0,0,2.12,1.69,1.64,3.83-.42,1.86-2.56,2.3-3.35,2.3,0,0-2.77.05-3.14-2.88,0,0-.34-1.37,1.45-3.01,0,0,1.27-1.09,1.69-3.48"/>
      <path class="st0" d="M238.98,141.37s0,1.97,1.72,3.24c0,0,2.12,1.69,1.64,3.83-.42,1.86-2.56,2.3-3.35,2.3,0,0-2.77.05-3.14-2.88,0,0-.34-1.37,1.45-3.01,0,0,1.27-1.09,1.69-3.48"/>
    </g>
    <g>
      <path class="st0" d="M245.57,5.17s0,1.97,1.72,3.24c0,0,2.12,1.69,1.64,3.83-.42,1.86-2.56,2.3-3.35,2.3,0,0-2.77.05-3.14-2.88,0,0-.34-1.37,1.45-3.01,0,0,1.27-1.09,1.69-3.48"/>
      <path class="st0" d="M245.57,16s0,1.97,1.72,3.24c0,0,2.12,1.69,1.64,3.83-.42,1.86-2.56,2.3-3.35,2.3,0,0-2.77.05-3.14-2.88,0,0-.34-1.37,1.45-3.01,0,0,1.27-1.09,1.69-3.48"/>
      <path class="st0" d="M245.57,26.83s0,1.97,1.72,3.24c0,0,2.12,1.69,1.64,3.83-.42,1.86-2.56,2.3-3.35,2.3,0,0-2.77.05-3.14-2.88,0,0-.34-1.37,1.45-3.01,0,0,1.27-1.09,1.69-3.48"/>
      <path class="st0" d="M245.57,37.66s0,1.97,1.72,3.24c0,0,2.12,1.69,1.64,3.83-.42,1.86-2.56,2.3-3.35,2.3,0,0-2.77.05-3.14-2.88,0,0-.34-1.37,1.45-3.01,0,0,1.27-1.09,1.69-3.48"/>
      <path class="st0" d="M245.57,48.49s0,1.97,1.72,3.24c0,0,2.12,1.69,1.64,3.83-.42,1.86-2.56,2.3-3.35,2.3,0,0-2.77.05-3.14-2.88,0,0-.34-1.37,1.45-3.01,0,0,1.27-1.09,1.69-3.48"/>
      <path class="st0" d="M245.57,59.32s0,1.97,1.72,3.24c0,0,2.12,1.69,1.64,3.83-.42,1.86-2.56,2.3-3.35,2.3,0,0-2.77.05-3.14-2.88,0,0-.34-1.37,1.45-3.01,0,0,1.27-1.09,1.69-3.48"/>
      <path class="st0" d="M245.57,70.15s0,1.97,1.72,3.24c0,0,2.12,1.69,1.64,3.83-.42,1.86-2.56,2.3-3.35,2.3,0,0-2.77.05-3.14-2.88,0,0-.34-1.37,1.45-3.01,0,0,1.27-1.09,1.69-3.48"/>
      <path class="st0" d="M245.57,80.99s0,1.97,1.72,3.24c0,0,2.12,1.69,1.64,3.83-.42,1.86-2.56,2.3-3.35,2.3,0,0-2.77.05-3.14-2.88,0,0-.34-1.37,1.45-3.01,0,0,1.27-1.09,1.69-3.48"/>
      <path class="st0" d="M245.57,91.82s0,1.97,1.72,3.24c0,0,2.12,1.69,1.64,3.83-.42,1.86-2.56,2.3-3.35,2.3,0,0-2.77.05-3.14-2.88,0,0-.34-1.37,1.45-3.01,0,0,1.27-1.09,1.69-3.48"/>
      <path class="st0" d="M245.57,102.65s0,1.97,1.72,3.24c0,0,2.12,1.69,1.64,3.83-.42,1.86-2.56,2.3-3.35,2.3,0,0-2.77.05-3.14-2.88,0,0-.34-1.37,1.45-3.01,0,0,1.27-1.09,1.69-3.48"/>
      <path class="st0" d="M245.57,113.48s0,1.97,1.72,3.24c0,0,2.12,1.69,1.64,3.83-.42,1.86-2.56,2.3-3.35,2.3,0,0-2.77.05-3.14-2.88,0,0-.34-1.37,1.45-3.01,0,0,1.27-1.09,1.69-3.48"/>
      <path class="st0" d="M245.57,124.31s0,1.97,1.72,3.24c0,0,2.12,1.69,1.64,3.83-.42,1.86-2.56,2.3-3.35,2.3,0,0-2.77.05-3.14-2.88,0,0-.34-1.37,1.45-3.01,0,0,1.27-1.09,1.69-3.48"/>
      <path class="st0" d="M245.57,135.14s0,1.97,1.72,3.24c0,0,2.12,1.69,1.64,3.83-.42,1.86-2.56,2.3-3.35,2.3,0,0-2.77.05-3.14-2.88,0,0-.34-1.37,1.45-3.01,0,0,1.27-1.09,1.69-3.48"/>
      <path class="st0" d="M245.57,145.97s0,1.97,1.72,3.24c0,0,2.12,1.69,1.64,3.83-.42,1.86-2.56,2.3-3.35,2.3,0,0-2.77.05-3.14-2.88,0,0-.34-1.37,1.45-3.01,0,0,1.27-1.09,1.69-3.48"/>
    </g>
  </g>
</svg>